M48
; DRILL file {KiCad (7.0.0)} date Tue Jul 11 13:45:42 2023
; FORMAT={-:-/ absolute / inch / decimal}
; #@! TF.CreationDate,2023-07-11T13:45:42+03:00
; #@! TF.GenerationSoftware,Kicad,Pcbnew,(7.0.0)
; #@! TF.FileFunction,Plated,1,2,PTH
FMAT,2
INCH
; #@! TA.AperFunction,Plated,PTH,ViaDrill
T1C0.0118
; #@! TA.AperFunction,Plated,PTH,ViaDrill
T2C0.0157
; #@! TA.AperFunction,Plated,PTH,ComponentDrill
T3C0.0394
; #@! TA.AperFunction,Plated,PTH,ComponentDrill
T4C0.0433
%
G90
G05
T1
X4.99Y-3.52
X4.99Y-3.61
X5.1Y-3.405
X5.16Y-4.2439
X5.1798Y-3.5768
X5.2Y-4.2439
X5.22Y-3.95
X5.23Y-4.2765
X5.38Y-3.29
X6.3686Y-2.7686
X6.37Y-2.67
X6.39Y-3.78
X6.41Y-2.67
X6.41Y-2.77
X6.6373Y-2.3137
X6.6873Y-2.4137
X6.6873Y-2.455
X6.6873Y-2.495
X6.6923Y-2.2237
X6.7423Y-2.2587
X6.7823Y-2.2587
T2
X5.3796Y-3.3404
T4
X4.7969Y-2.6
X4.7969Y-2.7
X4.7969Y-2.8
X4.7969Y-3.05
X4.7969Y-3.15
X4.7969Y-3.25
X4.8Y-3.5484
X4.8Y-3.6484
X4.8Y-3.7484
X4.8Y-4.05
X4.8Y-4.15
X4.8Y-4.25
X6.66Y-2.6
X6.66Y-2.7
X6.66Y-2.8
X6.66Y-3.05
X6.66Y-3.15
X6.66Y-3.25
X6.66Y-3.5484
X6.66Y-3.6484
X6.66Y-3.7484
X6.66Y-4.05
X6.66Y-4.15
X6.66Y-4.25
T3
G00X4.96Y-2.2506
M15
G01X4.96Y-2.3294
M16
G05
G00X5.0387Y-2.475
M15
G01X5.1175Y-2.475
M16
G05
G00X5.1962Y-2.2506
M15
G01X5.1962Y-2.3294
M16
G05
T0
M30
