%TF.GenerationSoftware,KiCad,Pcbnew,(7.0.0)*%
%TF.CreationDate,2023-07-11T13:45:38+03:00*%
%TF.ProjectId,Pico_Baseboard,5069636f-5f42-4617-9365-626f6172642e,rev?*%
%TF.SameCoordinates,Original*%
%TF.FileFunction,Copper,L2,Bot*%
%TF.FilePolarity,Positive*%
%FSLAX46Y46*%
G04 Gerber Fmt 4.6, Leading zero omitted, Abs format (unit mm)*
G04 Created by KiCad (PCBNEW (7.0.0)) date 2023-07-11 13:45:38*
%MOMM*%
%LPD*%
G01*
G04 APERTURE LIST*
G04 Aperture macros list*
%AMRoundRect*
0 Rectangle with rounded corners*
0 $1 Rounding radius*
0 $2 $3 $4 $5 $6 $7 $8 $9 X,Y pos of 4 corners*
0 Add a 4 corners polygon primitive as box body*
4,1,4,$2,$3,$4,$5,$6,$7,$8,$9,$2,$3,0*
0 Add four circle primitives for the rounded corners*
1,1,$1+$1,$2,$3*
1,1,$1+$1,$4,$5*
1,1,$1+$1,$6,$7*
1,1,$1+$1,$8,$9*
0 Add four rect primitives between the rounded corners*
20,1,$1+$1,$2,$3,$4,$5,0*
20,1,$1+$1,$4,$5,$6,$7,0*
20,1,$1+$1,$6,$7,$8,$9,0*
20,1,$1+$1,$8,$9,$2,$3,0*%
G04 Aperture macros list end*
%TA.AperFunction,ComponentPad*%
%ADD10R,3.500000X3.500000*%
%TD*%
%TA.AperFunction,ComponentPad*%
%ADD11RoundRect,0.750000X-0.750000X-1.000000X0.750000X-1.000000X0.750000X1.000000X-0.750000X1.000000X0*%
%TD*%
%TA.AperFunction,ComponentPad*%
%ADD12RoundRect,0.875000X-0.875000X-0.875000X0.875000X-0.875000X0.875000X0.875000X-0.875000X0.875000X0*%
%TD*%
%TA.AperFunction,ComponentPad*%
%ADD13R,2.200000X2.200000*%
%TD*%
%TA.AperFunction,ComponentPad*%
%ADD14C,2.200000*%
%TD*%
%TA.AperFunction,ViaPad*%
%ADD15C,0.600000*%
%TD*%
%TA.AperFunction,ViaPad*%
%ADD16C,0.800000*%
%TD*%
%TA.AperFunction,Conductor*%
%ADD17C,0.500000*%
%TD*%
%TA.AperFunction,Conductor*%
%ADD18C,0.200000*%
%TD*%
G04 APERTURE END LIST*
D10*
%TO.P,J101,1*%
%TO.N,Net-(D101-A)*%
X131983999Y-58165999D03*
D11*
%TO.P,J101,2*%
%TO.N,GND*%
X125984000Y-58166000D03*
D12*
%TO.P,J101,3*%
X128984000Y-62866000D03*
%TD*%
D13*
%TO.P,J107,1,Pin_1*%
%TO.N,+3V3*%
X169163999Y-95209999D03*
D14*
%TO.P,J107,2,Pin_2*%
%TO.N,/AUX_IO2*%
X169164000Y-92670000D03*
%TO.P,J107,3,Pin_3*%
%TO.N,GND*%
X169164000Y-90130000D03*
%TD*%
D13*
%TO.P,J105,1,Pin_1*%
%TO.N,VDDA*%
X121919999Y-102869999D03*
D14*
%TO.P,J105,2,Pin_2*%
%TO.N,/WATER_LEVEL4*%
X121920000Y-105410000D03*
%TO.P,J105,3,Pin_3*%
%TO.N,GND*%
X121920000Y-107950000D03*
%TD*%
D13*
%TO.P,J109,1,Pin_1*%
%TO.N,+3V3*%
X169163999Y-71119999D03*
D14*
%TO.P,J109,2,Pin_2*%
%TO.N,/AUX_IO4*%
X169164000Y-68580000D03*
%TO.P,J109,3,Pin_3*%
%TO.N,GND*%
X169164000Y-66040000D03*
%TD*%
D13*
%TO.P,J108,1,Pin_1*%
%TO.N,+3V3*%
X169163999Y-82549999D03*
D14*
%TO.P,J108,2,Pin_2*%
%TO.N,/AUX_IO3*%
X169164000Y-80010000D03*
%TO.P,J108,3,Pin_3*%
%TO.N,GND*%
X169164000Y-77470000D03*
%TD*%
D13*
%TO.P,J104,1,Pin_1*%
%TO.N,VDDA*%
X121919999Y-90129999D03*
D14*
%TO.P,J104,2,Pin_2*%
%TO.N,/WATER_LEVEL3*%
X121920000Y-92670000D03*
%TO.P,J104,3,Pin_3*%
%TO.N,GND*%
X121920000Y-95210000D03*
%TD*%
D13*
%TO.P,J102,1,Pin_1*%
%TO.N,VDDA*%
X121839999Y-66039999D03*
D14*
%TO.P,J102,2,Pin_2*%
%TO.N,/WATER_LEVEL1*%
X121840000Y-68580000D03*
%TO.P,J102,3,Pin_3*%
%TO.N,GND*%
X121840000Y-71120000D03*
%TD*%
D13*
%TO.P,J106,1,Pin_1*%
%TO.N,+3V3*%
X169163999Y-107949999D03*
D14*
%TO.P,J106,2,Pin_2*%
%TO.N,/AUX_IO1*%
X169164000Y-105410000D03*
%TO.P,J106,3,Pin_3*%
%TO.N,GND*%
X169164000Y-102870000D03*
%TD*%
D13*
%TO.P,J103,1,Pin_1*%
%TO.N,VDDA*%
X121839999Y-77469999D03*
D14*
%TO.P,J103,2,Pin_2*%
%TO.N,/WATER_LEVEL2*%
X121840000Y-80010000D03*
%TO.P,J103,3,Pin_3*%
%TO.N,GND*%
X121840000Y-82550000D03*
%TD*%
D15*
%TO.N,GND*%
X168587000Y-58767500D03*
X161798000Y-67818000D03*
X169857000Y-61307500D03*
X129540000Y-86487000D03*
X132080000Y-107795000D03*
X131064000Y-107795000D03*
X169857000Y-62357000D03*
X171254000Y-57370500D03*
X172270000Y-57370500D03*
X126746000Y-91694000D03*
X136652000Y-83566000D03*
X169984000Y-56481500D03*
X169857000Y-63373000D03*
X132842000Y-108622000D03*
X126746000Y-89408000D03*
X162814000Y-67818000D03*
X162306000Y-96012000D03*
%TO.N,+3V3*%
X162814000Y-70358000D03*
X161762000Y-70322000D03*
%TO.N,/MCU_RASPBERRYPI_MODULE_PICO/I2C_SDA*%
X131566941Y-90851483D03*
D16*
X136642000Y-84846000D03*
D15*
%TO.N,/MCU_RASPBERRYPI_MODULE_PICO/RESET*%
X132588000Y-100330000D03*
%TD*%
D17*
%TO.N,+3V3*%
X162052000Y-71120000D02*
X161762000Y-70830000D01*
X169164000Y-71120000D02*
X162052000Y-71120000D01*
X162814000Y-70358000D02*
X162814000Y-71120000D01*
X161762000Y-70830000D02*
X161762000Y-70322000D01*
D18*
%TO.N,/MCU_RASPBERRYPI_MODULE_PICO/I2C_SDA*%
X136642000Y-84846000D02*
X133594000Y-84846000D01*
X133594000Y-84846000D02*
X131566941Y-86873059D01*
X131566941Y-86873059D02*
X131566941Y-90851483D01*
%TD*%
%TA.AperFunction,Conductor*%
%TO.N,GND*%
G36*
X171453736Y-52370726D02*
G01*
X171712457Y-52386375D01*
X171727320Y-52388180D01*
X171978575Y-52434225D01*
X171993097Y-52437804D01*
X172236990Y-52513803D01*
X172250967Y-52519104D01*
X172483915Y-52623946D01*
X172497161Y-52630898D01*
X172715768Y-52763051D01*
X172728079Y-52771549D01*
X172929161Y-52929086D01*
X172940369Y-52939016D01*
X173120983Y-53119630D01*
X173130913Y-53130838D01*
X173288446Y-53331914D01*
X173296952Y-53344237D01*
X173429098Y-53562832D01*
X173436057Y-53576091D01*
X173540893Y-53809028D01*
X173546199Y-53823018D01*
X173622191Y-54066886D01*
X173625774Y-54081424D01*
X173671819Y-54332679D01*
X173673624Y-54347544D01*
X173689274Y-54606264D01*
X173689500Y-54613751D01*
X173689500Y-109216249D01*
X173689274Y-109223736D01*
X173673624Y-109482455D01*
X173671819Y-109497320D01*
X173625774Y-109748575D01*
X173622191Y-109763113D01*
X173546203Y-110006970D01*
X173540893Y-110020971D01*
X173436057Y-110253908D01*
X173429098Y-110267167D01*
X173296952Y-110485762D01*
X173288446Y-110498085D01*
X173130913Y-110699161D01*
X173120983Y-110710369D01*
X172940369Y-110890983D01*
X172929161Y-110900913D01*
X172728085Y-111058446D01*
X172715762Y-111066952D01*
X172497167Y-111199098D01*
X172483908Y-111206057D01*
X172250971Y-111310893D01*
X172236975Y-111316200D01*
X171993113Y-111392191D01*
X171978575Y-111395774D01*
X171727320Y-111441819D01*
X171712455Y-111443624D01*
X171453736Y-111459274D01*
X171446249Y-111459500D01*
X119383751Y-111459500D01*
X119376264Y-111459274D01*
X119117544Y-111443624D01*
X119102679Y-111441819D01*
X118851424Y-111395774D01*
X118836890Y-111392192D01*
X118593018Y-111316199D01*
X118579028Y-111310893D01*
X118346091Y-111206057D01*
X118332832Y-111199098D01*
X118114237Y-111066952D01*
X118101914Y-111058446D01*
X117900838Y-110900913D01*
X117889630Y-110890983D01*
X117709016Y-110710369D01*
X117699086Y-110699161D01*
X117541553Y-110498085D01*
X117533051Y-110485768D01*
X117400898Y-110267161D01*
X117393946Y-110253915D01*
X117289104Y-110020967D01*
X117283803Y-110006990D01*
X117207804Y-109763097D01*
X117204225Y-109748575D01*
X117158180Y-109497320D01*
X117156375Y-109482455D01*
X117140726Y-109223736D01*
X117140500Y-109216249D01*
X117140500Y-109064604D01*
X121162316Y-109064604D01*
X121169747Y-109072713D01*
X121237991Y-109120498D01*
X121247323Y-109125886D01*
X121451602Y-109221143D01*
X121461736Y-109224831D01*
X121679446Y-109283166D01*
X121690077Y-109285041D01*
X121914605Y-109304685D01*
X121925395Y-109304685D01*
X122149922Y-109285041D01*
X122160553Y-109283166D01*
X122378263Y-109224831D01*
X122388397Y-109221143D01*
X122592671Y-109125888D01*
X122602016Y-109120492D01*
X122670248Y-109072715D01*
X122677681Y-109064603D01*
X122671768Y-109055321D01*
X121931542Y-108315095D01*
X121919999Y-108308431D01*
X121908457Y-108315095D01*
X121168230Y-109055321D01*
X121162316Y-109064604D01*
X117140500Y-109064604D01*
X117140500Y-107993935D01*
X118625669Y-107993935D01*
X118656135Y-108166711D01*
X118725623Y-108327804D01*
X118830390Y-108468530D01*
X118964786Y-108581302D01*
X119121567Y-108660040D01*
X119292279Y-108700500D01*
X119420111Y-108700500D01*
X119423709Y-108700500D01*
X119554255Y-108685241D01*
X119719117Y-108625237D01*
X119865696Y-108528830D01*
X119986092Y-108401218D01*
X120073812Y-108249281D01*
X120124130Y-108081210D01*
X120131458Y-107955395D01*
X120565315Y-107955395D01*
X120584958Y-108179922D01*
X120586833Y-108190553D01*
X120645168Y-108408263D01*
X120648856Y-108418397D01*
X120744110Y-108622668D01*
X120749508Y-108632018D01*
X120797284Y-108700249D01*
X120805395Y-108707682D01*
X120814674Y-108701771D01*
X121554904Y-107961542D01*
X121561568Y-107950000D01*
X122278431Y-107950000D01*
X122285095Y-107961542D01*
X123025321Y-108701768D01*
X123034603Y-108707681D01*
X123042715Y-108700248D01*
X123090492Y-108632016D01*
X123095888Y-108622671D01*
X123191143Y-108418397D01*
X123194831Y-108408263D01*
X123253166Y-108190553D01*
X123255041Y-108179922D01*
X123274685Y-107955395D01*
X123274685Y-107944605D01*
X123255041Y-107720077D01*
X123253166Y-107709446D01*
X123194831Y-107491736D01*
X123191143Y-107481602D01*
X123095889Y-107277332D01*
X123090491Y-107267982D01*
X123042714Y-107199749D01*
X123034603Y-107192316D01*
X123025324Y-107198227D01*
X122285095Y-107938457D01*
X122278431Y-107950000D01*
X121561568Y-107950000D01*
X121554904Y-107938457D01*
X120814674Y-107198227D01*
X120805396Y-107192316D01*
X120797283Y-107199750D01*
X120749505Y-107267986D01*
X120744111Y-107277330D01*
X120648856Y-107481602D01*
X120645168Y-107491736D01*
X120586833Y-107709446D01*
X120584958Y-107720077D01*
X120565315Y-107944605D01*
X120565315Y-107955395D01*
X120131458Y-107955395D01*
X120134331Y-107906065D01*
X120103865Y-107733289D01*
X120034377Y-107572196D01*
X119929610Y-107431470D01*
X119857747Y-107371170D01*
X119800745Y-107323339D01*
X119800744Y-107323338D01*
X119795214Y-107318698D01*
X119715641Y-107278735D01*
X119644883Y-107243199D01*
X119644880Y-107243198D01*
X119638433Y-107239960D01*
X119631407Y-107238294D01*
X119631405Y-107238294D01*
X119474749Y-107201165D01*
X119474743Y-107201164D01*
X119467721Y-107199500D01*
X119336291Y-107199500D01*
X119332725Y-107199916D01*
X119332721Y-107199917D01*
X119212915Y-107213920D01*
X119212907Y-107213921D01*
X119205745Y-107214759D01*
X119198967Y-107217225D01*
X119198958Y-107217228D01*
X119047674Y-107272291D01*
X119047671Y-107272292D01*
X119040883Y-107274763D01*
X119034850Y-107278730D01*
X119034842Y-107278735D01*
X118900340Y-107367199D01*
X118900334Y-107367203D01*
X118894304Y-107371170D01*
X118889351Y-107376419D01*
X118889346Y-107376424D01*
X118778865Y-107493527D01*
X118778861Y-107493531D01*
X118773908Y-107498782D01*
X118770299Y-107505032D01*
X118770296Y-107505037D01*
X118689799Y-107644463D01*
X118689796Y-107644468D01*
X118686188Y-107650719D01*
X118684117Y-107657634D01*
X118684117Y-107657636D01*
X118637941Y-107811869D01*
X118637939Y-107811877D01*
X118635870Y-107818790D01*
X118635450Y-107825996D01*
X118635449Y-107826004D01*
X118626088Y-107986725D01*
X118626088Y-107986733D01*
X118625669Y-107993935D01*
X117140500Y-107993935D01*
X117140500Y-105453935D01*
X118625669Y-105453935D01*
X118656135Y-105626711D01*
X118725623Y-105787804D01*
X118729936Y-105793597D01*
X118729937Y-105793599D01*
X118826078Y-105922738D01*
X118830390Y-105928530D01*
X118964786Y-106041302D01*
X119121567Y-106120040D01*
X119292279Y-106160500D01*
X119420111Y-106160500D01*
X119423709Y-106160500D01*
X119554255Y-106145241D01*
X119719117Y-106085237D01*
X119865696Y-105988830D01*
X119986092Y-105861218D01*
X120073812Y-105709281D01*
X120124130Y-105541210D01*
X120131772Y-105410000D01*
X120564341Y-105410000D01*
X120564813Y-105415395D01*
X120583881Y-105633346D01*
X120584937Y-105645408D01*
X120586336Y-105650630D01*
X120586337Y-105650634D01*
X120644694Y-105868430D01*
X120644697Y-105868438D01*
X120646097Y-105873663D01*
X120648385Y-105878570D01*
X120648386Y-105878572D01*
X120743678Y-106082927D01*
X120743681Y-106082933D01*
X120745965Y-106087830D01*
X120749064Y-106092257D01*
X120749066Y-106092259D01*
X120878399Y-106276966D01*
X120878402Y-106276970D01*
X120881505Y-106281401D01*
X121048599Y-106448495D01*
X121053032Y-106451599D01*
X121053038Y-106451604D01*
X121234593Y-106578730D01*
X121273459Y-106623048D01*
X121287470Y-106680305D01*
X121273459Y-106737562D01*
X121234594Y-106781880D01*
X121169750Y-106827284D01*
X121162316Y-106835396D01*
X121168227Y-106844674D01*
X121908457Y-107584904D01*
X121920000Y-107591568D01*
X121931542Y-107584904D01*
X122671771Y-106844674D01*
X122677682Y-106835395D01*
X122670251Y-106827286D01*
X122605405Y-106781880D01*
X122566539Y-106737562D01*
X122552529Y-106680305D01*
X122566540Y-106623048D01*
X122605406Y-106578730D01*
X122786961Y-106451604D01*
X122786961Y-106451603D01*
X122791401Y-106448495D01*
X122958495Y-106281401D01*
X123094035Y-106087830D01*
X123193903Y-105873663D01*
X123255063Y-105645408D01*
X123275659Y-105410000D01*
X167808341Y-105410000D01*
X167808813Y-105415395D01*
X167827881Y-105633346D01*
X167828937Y-105645408D01*
X167830336Y-105650630D01*
X167830337Y-105650634D01*
X167888694Y-105868430D01*
X167888697Y-105868438D01*
X167890097Y-105873663D01*
X167892385Y-105878570D01*
X167892386Y-105878572D01*
X167987678Y-106082927D01*
X167987681Y-106082933D01*
X167989965Y-106087830D01*
X167993064Y-106092257D01*
X167993066Y-106092259D01*
X168122399Y-106276966D01*
X168122402Y-106276970D01*
X168125505Y-106281401D01*
X168129336Y-106285232D01*
X168231923Y-106387819D01*
X168262173Y-106437182D01*
X168266715Y-106494898D01*
X168244560Y-106548385D01*
X168200537Y-106585985D01*
X168144242Y-106599500D01*
X168039326Y-106599500D01*
X168033351Y-106600688D01*
X168033346Y-106600689D01*
X167978240Y-106611650D01*
X167978235Y-106611651D01*
X167966260Y-106614034D01*
X167956105Y-106620819D01*
X167956103Y-106620820D01*
X167893551Y-106662615D01*
X167893548Y-106662617D01*
X167883399Y-106669399D01*
X167876617Y-106679548D01*
X167876615Y-106679551D01*
X167834820Y-106742103D01*
X167834819Y-106742105D01*
X167828034Y-106752260D01*
X167825651Y-106764235D01*
X167825650Y-106764240D01*
X167814689Y-106819346D01*
X167814688Y-106819351D01*
X167813500Y-106825326D01*
X167813500Y-109074674D01*
X167814688Y-109080649D01*
X167814689Y-109080653D01*
X167825650Y-109135759D01*
X167825651Y-109135762D01*
X167828034Y-109147740D01*
X167883399Y-109230601D01*
X167966260Y-109285966D01*
X168039326Y-109300500D01*
X170282579Y-109300500D01*
X170288674Y-109300500D01*
X170361740Y-109285966D01*
X170444601Y-109230601D01*
X170499966Y-109147740D01*
X170514500Y-109074674D01*
X170514500Y-107993935D01*
X170949669Y-107993935D01*
X170980135Y-108166711D01*
X171049623Y-108327804D01*
X171154390Y-108468530D01*
X171288786Y-108581302D01*
X171445567Y-108660040D01*
X171616279Y-108700500D01*
X171744111Y-108700500D01*
X171747709Y-108700500D01*
X171878255Y-108685241D01*
X172043117Y-108625237D01*
X172189696Y-108528830D01*
X172310092Y-108401218D01*
X172397812Y-108249281D01*
X172448130Y-108081210D01*
X172458331Y-107906065D01*
X172427865Y-107733289D01*
X172358377Y-107572196D01*
X172253610Y-107431470D01*
X172181747Y-107371170D01*
X172124745Y-107323339D01*
X172124744Y-107323338D01*
X172119214Y-107318698D01*
X172039641Y-107278735D01*
X171968883Y-107243199D01*
X171968880Y-107243198D01*
X171962433Y-107239960D01*
X171955407Y-107238294D01*
X171955405Y-107238294D01*
X171798749Y-107201165D01*
X171798743Y-107201164D01*
X171791721Y-107199500D01*
X171660291Y-107199500D01*
X171656725Y-107199916D01*
X171656721Y-107199917D01*
X171536915Y-107213920D01*
X171536907Y-107213921D01*
X171529745Y-107214759D01*
X171522967Y-107217225D01*
X171522958Y-107217228D01*
X171371674Y-107272291D01*
X171371671Y-107272292D01*
X171364883Y-107274763D01*
X171358850Y-107278730D01*
X171358842Y-107278735D01*
X171224340Y-107367199D01*
X171224334Y-107367203D01*
X171218304Y-107371170D01*
X171213351Y-107376419D01*
X171213346Y-107376424D01*
X171102865Y-107493527D01*
X171102861Y-107493531D01*
X171097908Y-107498782D01*
X171094299Y-107505032D01*
X171094296Y-107505037D01*
X171013799Y-107644463D01*
X171013796Y-107644468D01*
X171010188Y-107650719D01*
X171008117Y-107657634D01*
X171008117Y-107657636D01*
X170961941Y-107811869D01*
X170961939Y-107811877D01*
X170959870Y-107818790D01*
X170959450Y-107825996D01*
X170959449Y-107826004D01*
X170950088Y-107986725D01*
X170950088Y-107986733D01*
X170949669Y-107993935D01*
X170514500Y-107993935D01*
X170514500Y-106825326D01*
X170499966Y-106752260D01*
X170444601Y-106669399D01*
X170361740Y-106614034D01*
X170349762Y-106611651D01*
X170349759Y-106611650D01*
X170294653Y-106600689D01*
X170294649Y-106600688D01*
X170288674Y-106599500D01*
X170282579Y-106599500D01*
X170183758Y-106599500D01*
X170127463Y-106585985D01*
X170083440Y-106548385D01*
X170061285Y-106494898D01*
X170065827Y-106437182D01*
X170096077Y-106387819D01*
X170096076Y-106387819D01*
X170202495Y-106281401D01*
X170338035Y-106087830D01*
X170437903Y-105873663D01*
X170499063Y-105645408D01*
X170515815Y-105453935D01*
X170949669Y-105453935D01*
X170980135Y-105626711D01*
X171049623Y-105787804D01*
X171053936Y-105793597D01*
X171053937Y-105793599D01*
X171150078Y-105922738D01*
X171154390Y-105928530D01*
X171288786Y-106041302D01*
X171445567Y-106120040D01*
X171616279Y-106160500D01*
X171744111Y-106160500D01*
X171747709Y-106160500D01*
X171878255Y-106145241D01*
X172043117Y-106085237D01*
X172189696Y-105988830D01*
X172310092Y-105861218D01*
X172397812Y-105709281D01*
X172448130Y-105541210D01*
X172458331Y-105366065D01*
X172427865Y-105193289D01*
X172358377Y-105032196D01*
X172253610Y-104891470D01*
X172181747Y-104831170D01*
X172124745Y-104783339D01*
X172124744Y-104783338D01*
X172119214Y-104778698D01*
X172039641Y-104738735D01*
X171968883Y-104703199D01*
X171968880Y-104703198D01*
X171962433Y-104699960D01*
X171955407Y-104698294D01*
X171955405Y-104698294D01*
X171798749Y-104661165D01*
X171798743Y-104661164D01*
X171791721Y-104659500D01*
X171660291Y-104659500D01*
X171656725Y-104659916D01*
X171656721Y-104659917D01*
X171536915Y-104673920D01*
X171536907Y-104673921D01*
X171529745Y-104674759D01*
X171522967Y-104677225D01*
X171522958Y-104677228D01*
X171371674Y-104732291D01*
X171371671Y-104732292D01*
X171364883Y-104734763D01*
X171358850Y-104738730D01*
X171358842Y-104738735D01*
X171224340Y-104827199D01*
X171224334Y-104827203D01*
X171218304Y-104831170D01*
X171213351Y-104836419D01*
X171213346Y-104836424D01*
X171102865Y-104953527D01*
X171102861Y-104953531D01*
X171097908Y-104958782D01*
X171094299Y-104965032D01*
X171094296Y-104965037D01*
X171013799Y-105104463D01*
X171013796Y-105104468D01*
X171010188Y-105110719D01*
X171008117Y-105117634D01*
X171008117Y-105117636D01*
X170961941Y-105271869D01*
X170961939Y-105271877D01*
X170959870Y-105278790D01*
X170959450Y-105285996D01*
X170959449Y-105286004D01*
X170950088Y-105446725D01*
X170950088Y-105446733D01*
X170949669Y-105453935D01*
X170515815Y-105453935D01*
X170519659Y-105410000D01*
X170499063Y-105174592D01*
X170437903Y-104946337D01*
X170338035Y-104732171D01*
X170202495Y-104538599D01*
X170035401Y-104371505D01*
X170030970Y-104368402D01*
X170030966Y-104368399D01*
X169849405Y-104241269D01*
X169810540Y-104196951D01*
X169796529Y-104139694D01*
X169810539Y-104082438D01*
X169849405Y-104038120D01*
X169914248Y-103992715D01*
X169921681Y-103984603D01*
X169915768Y-103975321D01*
X169175542Y-103235095D01*
X169164000Y-103228431D01*
X169152457Y-103235095D01*
X168412230Y-103975321D01*
X168406316Y-103984604D01*
X168413749Y-103992715D01*
X168478594Y-104038120D01*
X168517460Y-104082438D01*
X168531471Y-104139695D01*
X168517460Y-104196952D01*
X168478594Y-104241270D01*
X168297034Y-104368399D01*
X168297029Y-104368402D01*
X168292599Y-104371505D01*
X168288775Y-104375328D01*
X168288769Y-104375334D01*
X168129334Y-104534769D01*
X168129328Y-104534775D01*
X168125505Y-104538599D01*
X168122402Y-104543029D01*
X168122399Y-104543034D01*
X167993073Y-104727731D01*
X167993068Y-104727738D01*
X167989965Y-104732171D01*
X167987677Y-104737077D01*
X167987675Y-104737081D01*
X167892386Y-104941427D01*
X167892383Y-104941432D01*
X167890097Y-104946337D01*
X167888698Y-104951557D01*
X167888694Y-104951569D01*
X167830337Y-105169365D01*
X167830335Y-105169371D01*
X167828937Y-105174592D01*
X167828465Y-105179977D01*
X167828465Y-105179982D01*
X167819189Y-105286004D01*
X167808341Y-105410000D01*
X123275659Y-105410000D01*
X123255063Y-105174592D01*
X123193903Y-104946337D01*
X123094035Y-104732171D01*
X122958495Y-104538599D01*
X122852077Y-104432181D01*
X122821827Y-104382818D01*
X122817285Y-104325102D01*
X122839440Y-104271615D01*
X122883463Y-104234015D01*
X122939758Y-104220500D01*
X123038579Y-104220500D01*
X123044674Y-104220500D01*
X123117740Y-104205966D01*
X123200601Y-104150601D01*
X123255966Y-104067740D01*
X123270500Y-103994674D01*
X123270500Y-102875395D01*
X167809315Y-102875395D01*
X167828958Y-103099922D01*
X167830833Y-103110553D01*
X167889168Y-103328263D01*
X167892856Y-103338397D01*
X167988110Y-103542668D01*
X167993508Y-103552018D01*
X168041284Y-103620249D01*
X168049395Y-103627682D01*
X168058674Y-103621771D01*
X168798904Y-102881542D01*
X168805568Y-102870000D01*
X169522431Y-102870000D01*
X169529095Y-102881542D01*
X170269321Y-103621768D01*
X170278603Y-103627681D01*
X170286715Y-103620248D01*
X170334492Y-103552016D01*
X170339888Y-103542671D01*
X170435143Y-103338397D01*
X170438831Y-103328263D01*
X170497166Y-103110553D01*
X170499041Y-103099922D01*
X170515313Y-102913935D01*
X170949669Y-102913935D01*
X170980135Y-103086711D01*
X171049623Y-103247804D01*
X171154390Y-103388530D01*
X171288786Y-103501302D01*
X171445567Y-103580040D01*
X171616279Y-103620500D01*
X171744111Y-103620500D01*
X171747709Y-103620500D01*
X171878255Y-103605241D01*
X172043117Y-103545237D01*
X172189696Y-103448830D01*
X172310092Y-103321218D01*
X172397812Y-103169281D01*
X172448130Y-103001210D01*
X172458331Y-102826065D01*
X172427865Y-102653289D01*
X172358377Y-102492196D01*
X172253610Y-102351470D01*
X172181747Y-102291170D01*
X172124745Y-102243339D01*
X172124744Y-102243338D01*
X172119214Y-102238698D01*
X172039641Y-102198735D01*
X171968883Y-102163199D01*
X171968880Y-102163198D01*
X171962433Y-102159960D01*
X171955407Y-102158294D01*
X171955405Y-102158294D01*
X171798749Y-102121165D01*
X171798743Y-102121164D01*
X171791721Y-102119500D01*
X171660291Y-102119500D01*
X171656725Y-102119916D01*
X171656721Y-102119917D01*
X171536915Y-102133920D01*
X171536907Y-102133921D01*
X171529745Y-102134759D01*
X171522967Y-102137225D01*
X171522958Y-102137228D01*
X171371674Y-102192291D01*
X171371671Y-102192292D01*
X171364883Y-102194763D01*
X171358850Y-102198730D01*
X171358842Y-102198735D01*
X171224340Y-102287199D01*
X171224334Y-102287203D01*
X171218304Y-102291170D01*
X171213351Y-102296419D01*
X171213346Y-102296424D01*
X171102865Y-102413527D01*
X171102861Y-102413531D01*
X171097908Y-102418782D01*
X171094299Y-102425032D01*
X171094296Y-102425037D01*
X171013799Y-102564463D01*
X171013796Y-102564468D01*
X171010188Y-102570719D01*
X171008117Y-102577634D01*
X171008117Y-102577636D01*
X170961941Y-102731869D01*
X170961939Y-102731877D01*
X170959870Y-102738790D01*
X170959450Y-102745996D01*
X170959449Y-102746004D01*
X170950088Y-102906725D01*
X170950088Y-102906733D01*
X170949669Y-102913935D01*
X170515313Y-102913935D01*
X170518685Y-102875395D01*
X170518685Y-102864605D01*
X170499041Y-102640077D01*
X170497166Y-102629446D01*
X170438831Y-102411736D01*
X170435143Y-102401602D01*
X170339889Y-102197332D01*
X170334491Y-102187982D01*
X170286714Y-102119749D01*
X170278603Y-102112316D01*
X170269324Y-102118227D01*
X169529095Y-102858457D01*
X169522431Y-102870000D01*
X168805568Y-102870000D01*
X168798904Y-102858457D01*
X168058674Y-102118227D01*
X168049396Y-102112316D01*
X168041283Y-102119750D01*
X167993505Y-102187986D01*
X167988111Y-102197330D01*
X167892856Y-102401602D01*
X167889168Y-102411736D01*
X167830833Y-102629446D01*
X167828958Y-102640077D01*
X167809315Y-102864605D01*
X167809315Y-102875395D01*
X123270500Y-102875395D01*
X123270500Y-101755396D01*
X168406316Y-101755396D01*
X168412227Y-101764674D01*
X169152457Y-102504904D01*
X169164000Y-102511568D01*
X169175542Y-102504904D01*
X169915771Y-101764674D01*
X169921682Y-101755395D01*
X169914249Y-101747284D01*
X169846018Y-101699508D01*
X169836668Y-101694110D01*
X169632397Y-101598856D01*
X169622263Y-101595168D01*
X169404553Y-101536833D01*
X169393922Y-101534958D01*
X169169395Y-101515315D01*
X169158605Y-101515315D01*
X168934077Y-101534958D01*
X168923446Y-101536833D01*
X168705736Y-101595168D01*
X168695602Y-101598856D01*
X168491330Y-101694111D01*
X168481986Y-101699505D01*
X168413750Y-101747283D01*
X168406316Y-101755396D01*
X123270500Y-101755396D01*
X123270500Y-101745326D01*
X123255966Y-101672260D01*
X123200601Y-101589399D01*
X123117740Y-101534034D01*
X123105762Y-101531651D01*
X123105759Y-101531650D01*
X123050653Y-101520689D01*
X123050649Y-101520688D01*
X123044674Y-101519500D01*
X120795326Y-101519500D01*
X120789351Y-101520688D01*
X120789346Y-101520689D01*
X120734240Y-101531650D01*
X120734235Y-101531651D01*
X120722260Y-101534034D01*
X120712105Y-101540819D01*
X120712103Y-101540820D01*
X120649551Y-101582615D01*
X120649548Y-101582617D01*
X120639399Y-101589399D01*
X120632617Y-101599548D01*
X120632615Y-101599551D01*
X120590820Y-101662103D01*
X120590819Y-101662105D01*
X120584034Y-101672260D01*
X120581651Y-101684235D01*
X120581650Y-101684240D01*
X120570689Y-101739346D01*
X120570688Y-101739351D01*
X120569500Y-101745326D01*
X120569500Y-103994674D01*
X120570688Y-104000649D01*
X120570689Y-104000653D01*
X120581650Y-104055759D01*
X120581651Y-104055762D01*
X120584034Y-104067740D01*
X120639399Y-104150601D01*
X120722260Y-104205966D01*
X120795326Y-104220500D01*
X120900242Y-104220500D01*
X120956537Y-104234015D01*
X121000560Y-104271615D01*
X121022715Y-104325102D01*
X121018173Y-104382818D01*
X120987923Y-104432181D01*
X120885334Y-104534769D01*
X120885328Y-104534775D01*
X120881505Y-104538599D01*
X120878402Y-104543029D01*
X120878399Y-104543034D01*
X120749073Y-104727731D01*
X120749068Y-104727738D01*
X120745965Y-104732171D01*
X120743677Y-104737077D01*
X120743675Y-104737081D01*
X120648386Y-104941427D01*
X120648383Y-104941432D01*
X120646097Y-104946337D01*
X120644698Y-104951557D01*
X120644694Y-104951569D01*
X120586337Y-105169365D01*
X120586335Y-105169371D01*
X120584937Y-105174592D01*
X120584465Y-105179977D01*
X120584465Y-105179982D01*
X120575189Y-105286004D01*
X120564341Y-105410000D01*
X120131772Y-105410000D01*
X120134331Y-105366065D01*
X120103865Y-105193289D01*
X120034377Y-105032196D01*
X119929610Y-104891470D01*
X119857747Y-104831170D01*
X119800745Y-104783339D01*
X119800744Y-104783338D01*
X119795214Y-104778698D01*
X119715641Y-104738735D01*
X119644883Y-104703199D01*
X119644880Y-104703198D01*
X119638433Y-104699960D01*
X119631407Y-104698294D01*
X119631405Y-104698294D01*
X119474749Y-104661165D01*
X119474743Y-104661164D01*
X119467721Y-104659500D01*
X119336291Y-104659500D01*
X119332725Y-104659916D01*
X119332721Y-104659917D01*
X119212915Y-104673920D01*
X119212907Y-104673921D01*
X119205745Y-104674759D01*
X119198967Y-104677225D01*
X119198958Y-104677228D01*
X119047674Y-104732291D01*
X119047671Y-104732292D01*
X119040883Y-104734763D01*
X119034850Y-104738730D01*
X119034842Y-104738735D01*
X118900340Y-104827199D01*
X118900334Y-104827203D01*
X118894304Y-104831170D01*
X118889351Y-104836419D01*
X118889346Y-104836424D01*
X118778865Y-104953527D01*
X118778861Y-104953531D01*
X118773908Y-104958782D01*
X118770299Y-104965032D01*
X118770296Y-104965037D01*
X118689799Y-105104463D01*
X118689796Y-105104468D01*
X118686188Y-105110719D01*
X118684117Y-105117634D01*
X118684117Y-105117636D01*
X118637941Y-105271869D01*
X118637939Y-105271877D01*
X118635870Y-105278790D01*
X118635450Y-105285996D01*
X118635449Y-105286004D01*
X118626088Y-105446725D01*
X118626088Y-105446733D01*
X118625669Y-105453935D01*
X117140500Y-105453935D01*
X117140500Y-102913935D01*
X118625669Y-102913935D01*
X118656135Y-103086711D01*
X118725623Y-103247804D01*
X118830390Y-103388530D01*
X118964786Y-103501302D01*
X119121567Y-103580040D01*
X119292279Y-103620500D01*
X119420111Y-103620500D01*
X119423709Y-103620500D01*
X119554255Y-103605241D01*
X119719117Y-103545237D01*
X119865696Y-103448830D01*
X119986092Y-103321218D01*
X120073812Y-103169281D01*
X120124130Y-103001210D01*
X120134331Y-102826065D01*
X120103865Y-102653289D01*
X120034377Y-102492196D01*
X119929610Y-102351470D01*
X119857747Y-102291170D01*
X119800745Y-102243339D01*
X119800744Y-102243338D01*
X119795214Y-102238698D01*
X119715641Y-102198735D01*
X119644883Y-102163199D01*
X119644880Y-102163198D01*
X119638433Y-102159960D01*
X119631407Y-102158294D01*
X119631405Y-102158294D01*
X119474749Y-102121165D01*
X119474743Y-102121164D01*
X119467721Y-102119500D01*
X119336291Y-102119500D01*
X119332725Y-102119916D01*
X119332721Y-102119917D01*
X119212915Y-102133920D01*
X119212907Y-102133921D01*
X119205745Y-102134759D01*
X119198967Y-102137225D01*
X119198958Y-102137228D01*
X119047674Y-102192291D01*
X119047671Y-102192292D01*
X119040883Y-102194763D01*
X119034850Y-102198730D01*
X119034842Y-102198735D01*
X118900340Y-102287199D01*
X118900334Y-102287203D01*
X118894304Y-102291170D01*
X118889351Y-102296419D01*
X118889346Y-102296424D01*
X118778865Y-102413527D01*
X118778861Y-102413531D01*
X118773908Y-102418782D01*
X118770299Y-102425032D01*
X118770296Y-102425037D01*
X118689799Y-102564463D01*
X118689796Y-102564468D01*
X118686188Y-102570719D01*
X118684117Y-102577634D01*
X118684117Y-102577636D01*
X118637941Y-102731869D01*
X118637939Y-102731877D01*
X118635870Y-102738790D01*
X118635450Y-102745996D01*
X118635449Y-102746004D01*
X118626088Y-102906725D01*
X118626088Y-102906733D01*
X118625669Y-102913935D01*
X117140500Y-102913935D01*
X117140500Y-100330000D01*
X132032750Y-100330000D01*
X132051670Y-100473709D01*
X132107139Y-100607625D01*
X132195379Y-100722621D01*
X132310375Y-100810861D01*
X132444291Y-100866330D01*
X132588000Y-100885250D01*
X132731709Y-100866330D01*
X132865625Y-100810861D01*
X132980621Y-100722621D01*
X133068861Y-100607625D01*
X133124330Y-100473709D01*
X133143250Y-100330000D01*
X133124330Y-100186291D01*
X133068861Y-100052375D01*
X132980621Y-99937379D01*
X132865625Y-99849139D01*
X132829592Y-99834214D01*
X132739223Y-99796782D01*
X132739220Y-99796781D01*
X132731709Y-99793670D01*
X132723649Y-99792608D01*
X132723646Y-99792608D01*
X132596059Y-99775811D01*
X132588000Y-99774750D01*
X132579941Y-99775811D01*
X132452353Y-99792608D01*
X132452348Y-99792609D01*
X132444291Y-99793670D01*
X132436781Y-99796780D01*
X132436776Y-99796782D01*
X132317885Y-99846028D01*
X132317883Y-99846029D01*
X132310375Y-99849139D01*
X132303933Y-99854082D01*
X132303928Y-99854085D01*
X132201821Y-99932435D01*
X132201817Y-99932438D01*
X132195379Y-99937379D01*
X132190438Y-99943817D01*
X132190435Y-99943821D01*
X132112085Y-100045928D01*
X132112082Y-100045933D01*
X132107139Y-100052375D01*
X132104029Y-100059883D01*
X132104028Y-100059885D01*
X132054782Y-100178776D01*
X132054780Y-100178781D01*
X132051670Y-100186291D01*
X132050609Y-100194348D01*
X132050608Y-100194353D01*
X132033811Y-100321941D01*
X132032750Y-100330000D01*
X117140500Y-100330000D01*
X117140500Y-96324604D01*
X121162316Y-96324604D01*
X121169747Y-96332713D01*
X121237991Y-96380498D01*
X121247323Y-96385886D01*
X121451602Y-96481143D01*
X121461736Y-96484831D01*
X121679446Y-96543166D01*
X121690077Y-96545041D01*
X121914605Y-96564685D01*
X121925395Y-96564685D01*
X122149922Y-96545041D01*
X122160553Y-96543166D01*
X122378263Y-96484831D01*
X122388397Y-96481143D01*
X122592671Y-96385888D01*
X122602016Y-96380492D01*
X122670248Y-96332715D01*
X122677681Y-96324603D01*
X122671768Y-96315321D01*
X121931542Y-95575095D01*
X121920000Y-95568431D01*
X121908457Y-95575095D01*
X121168230Y-96315321D01*
X121162316Y-96324604D01*
X117140500Y-96324604D01*
X117140500Y-95253935D01*
X118625669Y-95253935D01*
X118656135Y-95426711D01*
X118725623Y-95587804D01*
X118830390Y-95728530D01*
X118964786Y-95841302D01*
X119121567Y-95920040D01*
X119292279Y-95960500D01*
X119420111Y-95960500D01*
X119423709Y-95960500D01*
X119554255Y-95945241D01*
X119719117Y-95885237D01*
X119865696Y-95788830D01*
X119986092Y-95661218D01*
X120073812Y-95509281D01*
X120124130Y-95341210D01*
X120131458Y-95215395D01*
X120565315Y-95215395D01*
X120584958Y-95439922D01*
X120586833Y-95450553D01*
X120645168Y-95668263D01*
X120648856Y-95678397D01*
X120744110Y-95882668D01*
X120749508Y-95892018D01*
X120797284Y-95960249D01*
X120805395Y-95967682D01*
X120814674Y-95961771D01*
X121554904Y-95221542D01*
X121561568Y-95210000D01*
X122278431Y-95210000D01*
X122285095Y-95221542D01*
X123025321Y-95961768D01*
X123034603Y-95967681D01*
X123042715Y-95960248D01*
X123090492Y-95892016D01*
X123095888Y-95882671D01*
X123191143Y-95678397D01*
X123194831Y-95668263D01*
X123253166Y-95450553D01*
X123255041Y-95439922D01*
X123274685Y-95215395D01*
X123274685Y-95204605D01*
X123255041Y-94980077D01*
X123253166Y-94969446D01*
X123194831Y-94751736D01*
X123191143Y-94741602D01*
X123095889Y-94537332D01*
X123090491Y-94527982D01*
X123042714Y-94459749D01*
X123034603Y-94452316D01*
X123025324Y-94458227D01*
X122285095Y-95198457D01*
X122278431Y-95210000D01*
X121561568Y-95210000D01*
X121554904Y-95198457D01*
X120814674Y-94458227D01*
X120805396Y-94452316D01*
X120797283Y-94459750D01*
X120749505Y-94527986D01*
X120744111Y-94537330D01*
X120648856Y-94741602D01*
X120645168Y-94751736D01*
X120586833Y-94969446D01*
X120584958Y-94980077D01*
X120565315Y-95204605D01*
X120565315Y-95215395D01*
X120131458Y-95215395D01*
X120134331Y-95166065D01*
X120103865Y-94993289D01*
X120034377Y-94832196D01*
X119929610Y-94691470D01*
X119857747Y-94631170D01*
X119800745Y-94583339D01*
X119800744Y-94583338D01*
X119795214Y-94578698D01*
X119715641Y-94538735D01*
X119644883Y-94503199D01*
X119644880Y-94503198D01*
X119638433Y-94499960D01*
X119631407Y-94498294D01*
X119631405Y-94498294D01*
X119474749Y-94461165D01*
X119474743Y-94461164D01*
X119467721Y-94459500D01*
X119336291Y-94459500D01*
X119332725Y-94459916D01*
X119332721Y-94459917D01*
X119212915Y-94473920D01*
X119212907Y-94473921D01*
X119205745Y-94474759D01*
X119198967Y-94477225D01*
X119198958Y-94477228D01*
X119047674Y-94532291D01*
X119047671Y-94532292D01*
X119040883Y-94534763D01*
X119034850Y-94538730D01*
X119034842Y-94538735D01*
X118900340Y-94627199D01*
X118900334Y-94627203D01*
X118894304Y-94631170D01*
X118889351Y-94636419D01*
X118889346Y-94636424D01*
X118778865Y-94753527D01*
X118778861Y-94753531D01*
X118773908Y-94758782D01*
X118770299Y-94765032D01*
X118770296Y-94765037D01*
X118689799Y-94904463D01*
X118689796Y-94904468D01*
X118686188Y-94910719D01*
X118684117Y-94917634D01*
X118684117Y-94917636D01*
X118637941Y-95071869D01*
X118637939Y-95071877D01*
X118635870Y-95078790D01*
X118635450Y-95085996D01*
X118635449Y-95086004D01*
X118626088Y-95246725D01*
X118626088Y-95246733D01*
X118625669Y-95253935D01*
X117140500Y-95253935D01*
X117140500Y-92713935D01*
X118625669Y-92713935D01*
X118656135Y-92886711D01*
X118725623Y-93047804D01*
X118729936Y-93053597D01*
X118729937Y-93053599D01*
X118826078Y-93182738D01*
X118830390Y-93188530D01*
X118964786Y-93301302D01*
X119121567Y-93380040D01*
X119292279Y-93420500D01*
X119420111Y-93420500D01*
X119423709Y-93420500D01*
X119554255Y-93405241D01*
X119719117Y-93345237D01*
X119865696Y-93248830D01*
X119986092Y-93121218D01*
X120073812Y-92969281D01*
X120124130Y-92801210D01*
X120131772Y-92670000D01*
X120564341Y-92670000D01*
X120564813Y-92675395D01*
X120583881Y-92893346D01*
X120584937Y-92905408D01*
X120586336Y-92910630D01*
X120586337Y-92910634D01*
X120644694Y-93128430D01*
X120644697Y-93128438D01*
X120646097Y-93133663D01*
X120648385Y-93138570D01*
X120648386Y-93138572D01*
X120743678Y-93342927D01*
X120743681Y-93342933D01*
X120745965Y-93347830D01*
X120749064Y-93352257D01*
X120749066Y-93352259D01*
X120878399Y-93536966D01*
X120878402Y-93536970D01*
X120881505Y-93541401D01*
X121048599Y-93708495D01*
X121053032Y-93711599D01*
X121053038Y-93711604D01*
X121234593Y-93838730D01*
X121273459Y-93883048D01*
X121287470Y-93940305D01*
X121273459Y-93997562D01*
X121234594Y-94041880D01*
X121169750Y-94087284D01*
X121162316Y-94095396D01*
X121168227Y-94104674D01*
X121908457Y-94844904D01*
X121920000Y-94851568D01*
X121931542Y-94844904D01*
X122671771Y-94104674D01*
X122677682Y-94095395D01*
X122670251Y-94087286D01*
X122605405Y-94041880D01*
X122566539Y-93997562D01*
X122552529Y-93940305D01*
X122566540Y-93883048D01*
X122605406Y-93838730D01*
X122786961Y-93711604D01*
X122786961Y-93711603D01*
X122791401Y-93708495D01*
X122958495Y-93541401D01*
X123094035Y-93347830D01*
X123193903Y-93133663D01*
X123255063Y-92905408D01*
X123275659Y-92670000D01*
X167808341Y-92670000D01*
X167808813Y-92675395D01*
X167827881Y-92893346D01*
X167828937Y-92905408D01*
X167830336Y-92910630D01*
X167830337Y-92910634D01*
X167888694Y-93128430D01*
X167888697Y-93128438D01*
X167890097Y-93133663D01*
X167892385Y-93138570D01*
X167892386Y-93138572D01*
X167987678Y-93342927D01*
X167987681Y-93342933D01*
X167989965Y-93347830D01*
X167993064Y-93352257D01*
X167993066Y-93352259D01*
X168122399Y-93536966D01*
X168122402Y-93536970D01*
X168125505Y-93541401D01*
X168129336Y-93545231D01*
X168129336Y-93545232D01*
X168231923Y-93647819D01*
X168262173Y-93697182D01*
X168266715Y-93754898D01*
X168244560Y-93808385D01*
X168200537Y-93845985D01*
X168144242Y-93859500D01*
X168039326Y-93859500D01*
X168033351Y-93860688D01*
X168033346Y-93860689D01*
X167978240Y-93871650D01*
X167978235Y-93871651D01*
X167966260Y-93874034D01*
X167956105Y-93880819D01*
X167956103Y-93880820D01*
X167893551Y-93922615D01*
X167893548Y-93922617D01*
X167883399Y-93929399D01*
X167876617Y-93939548D01*
X167876615Y-93939551D01*
X167834820Y-94002103D01*
X167834819Y-94002105D01*
X167828034Y-94012260D01*
X167825651Y-94024235D01*
X167825650Y-94024240D01*
X167814689Y-94079346D01*
X167814688Y-94079351D01*
X167813500Y-94085326D01*
X167813500Y-96334674D01*
X167814688Y-96340649D01*
X167814689Y-96340653D01*
X167825650Y-96395759D01*
X167825651Y-96395762D01*
X167828034Y-96407740D01*
X167883399Y-96490601D01*
X167966260Y-96545966D01*
X168039326Y-96560500D01*
X170282579Y-96560500D01*
X170288674Y-96560500D01*
X170361740Y-96545966D01*
X170444601Y-96490601D01*
X170499966Y-96407740D01*
X170514500Y-96334674D01*
X170514500Y-95253935D01*
X170949669Y-95253935D01*
X170980135Y-95426711D01*
X171049623Y-95587804D01*
X171154390Y-95728530D01*
X171288786Y-95841302D01*
X171445567Y-95920040D01*
X171616279Y-95960500D01*
X171744111Y-95960500D01*
X171747709Y-95960500D01*
X171878255Y-95945241D01*
X172043117Y-95885237D01*
X172189696Y-95788830D01*
X172310092Y-95661218D01*
X172397812Y-95509281D01*
X172448130Y-95341210D01*
X172458331Y-95166065D01*
X172427865Y-94993289D01*
X172358377Y-94832196D01*
X172253610Y-94691470D01*
X172181747Y-94631170D01*
X172124745Y-94583339D01*
X172124744Y-94583338D01*
X172119214Y-94578698D01*
X172039641Y-94538735D01*
X171968883Y-94503199D01*
X171968880Y-94503198D01*
X171962433Y-94499960D01*
X171955407Y-94498294D01*
X171955405Y-94498294D01*
X171798749Y-94461165D01*
X171798743Y-94461164D01*
X171791721Y-94459500D01*
X171660291Y-94459500D01*
X171656725Y-94459916D01*
X171656721Y-94459917D01*
X171536915Y-94473920D01*
X171536907Y-94473921D01*
X171529745Y-94474759D01*
X171522967Y-94477225D01*
X171522958Y-94477228D01*
X171371674Y-94532291D01*
X171371671Y-94532292D01*
X171364883Y-94534763D01*
X171358850Y-94538730D01*
X171358842Y-94538735D01*
X171224340Y-94627199D01*
X171224334Y-94627203D01*
X171218304Y-94631170D01*
X171213351Y-94636419D01*
X171213346Y-94636424D01*
X171102865Y-94753527D01*
X171102861Y-94753531D01*
X171097908Y-94758782D01*
X171094299Y-94765032D01*
X171094296Y-94765037D01*
X171013799Y-94904463D01*
X171013796Y-94904468D01*
X171010188Y-94910719D01*
X171008117Y-94917634D01*
X171008117Y-94917636D01*
X170961941Y-95071869D01*
X170961939Y-95071877D01*
X170959870Y-95078790D01*
X170959450Y-95085996D01*
X170959449Y-95086004D01*
X170950088Y-95246725D01*
X170950088Y-95246733D01*
X170949669Y-95253935D01*
X170514500Y-95253935D01*
X170514500Y-94085326D01*
X170499966Y-94012260D01*
X170444601Y-93929399D01*
X170361740Y-93874034D01*
X170349762Y-93871651D01*
X170349759Y-93871650D01*
X170294653Y-93860689D01*
X170294649Y-93860688D01*
X170288674Y-93859500D01*
X170282579Y-93859500D01*
X170183758Y-93859500D01*
X170127463Y-93845985D01*
X170083440Y-93808385D01*
X170061285Y-93754898D01*
X170065827Y-93697182D01*
X170096077Y-93647819D01*
X170096077Y-93647818D01*
X170202495Y-93541401D01*
X170338035Y-93347830D01*
X170437903Y-93133663D01*
X170499063Y-92905408D01*
X170515815Y-92713935D01*
X170949669Y-92713935D01*
X170980135Y-92886711D01*
X171049623Y-93047804D01*
X171053936Y-93053597D01*
X171053937Y-93053599D01*
X171150078Y-93182738D01*
X171154390Y-93188530D01*
X171288786Y-93301302D01*
X171445567Y-93380040D01*
X171616279Y-93420500D01*
X171744111Y-93420500D01*
X171747709Y-93420500D01*
X171878255Y-93405241D01*
X172043117Y-93345237D01*
X172189696Y-93248830D01*
X172310092Y-93121218D01*
X172397812Y-92969281D01*
X172448130Y-92801210D01*
X172458331Y-92626065D01*
X172427865Y-92453289D01*
X172358377Y-92292196D01*
X172253610Y-92151470D01*
X172181747Y-92091170D01*
X172124745Y-92043339D01*
X172124744Y-92043338D01*
X172119214Y-92038698D01*
X172039641Y-91998735D01*
X171968883Y-91963199D01*
X171968880Y-91963198D01*
X171962433Y-91959960D01*
X171955407Y-91958294D01*
X171955405Y-91958294D01*
X171798749Y-91921165D01*
X171798743Y-91921164D01*
X171791721Y-91919500D01*
X171660291Y-91919500D01*
X171656725Y-91919916D01*
X171656721Y-91919917D01*
X171536915Y-91933920D01*
X171536907Y-91933921D01*
X171529745Y-91934759D01*
X171522967Y-91937225D01*
X171522958Y-91937228D01*
X171371674Y-91992291D01*
X171371671Y-91992292D01*
X171364883Y-91994763D01*
X171358850Y-91998730D01*
X171358842Y-91998735D01*
X171224340Y-92087199D01*
X171224334Y-92087203D01*
X171218304Y-92091170D01*
X171213351Y-92096419D01*
X171213346Y-92096424D01*
X171102865Y-92213527D01*
X171102861Y-92213531D01*
X171097908Y-92218782D01*
X171094299Y-92225032D01*
X171094296Y-92225037D01*
X171013799Y-92364463D01*
X171013796Y-92364468D01*
X171010188Y-92370719D01*
X171008117Y-92377634D01*
X171008117Y-92377636D01*
X170961941Y-92531869D01*
X170961939Y-92531877D01*
X170959870Y-92538790D01*
X170959450Y-92545996D01*
X170959449Y-92546004D01*
X170950088Y-92706725D01*
X170950088Y-92706733D01*
X170949669Y-92713935D01*
X170515815Y-92713935D01*
X170519659Y-92670000D01*
X170499063Y-92434592D01*
X170437903Y-92206337D01*
X170338035Y-91992171D01*
X170202495Y-91798599D01*
X170035401Y-91631505D01*
X170030970Y-91628402D01*
X170030966Y-91628399D01*
X169849405Y-91501269D01*
X169810540Y-91456951D01*
X169796529Y-91399694D01*
X169810539Y-91342438D01*
X169849405Y-91298120D01*
X169914248Y-91252715D01*
X169921681Y-91244603D01*
X169915768Y-91235321D01*
X169175542Y-90495095D01*
X169163999Y-90488431D01*
X169152457Y-90495095D01*
X168412230Y-91235321D01*
X168406316Y-91244604D01*
X168413749Y-91252715D01*
X168478594Y-91298120D01*
X168517460Y-91342438D01*
X168531471Y-91399695D01*
X168517460Y-91456952D01*
X168478594Y-91501270D01*
X168297034Y-91628399D01*
X168297029Y-91628402D01*
X168292599Y-91631505D01*
X168288775Y-91635328D01*
X168288769Y-91635334D01*
X168129334Y-91794769D01*
X168129328Y-91794775D01*
X168125505Y-91798599D01*
X168122402Y-91803029D01*
X168122399Y-91803034D01*
X167993073Y-91987731D01*
X167993068Y-91987738D01*
X167989965Y-91992171D01*
X167987677Y-91997077D01*
X167987675Y-91997081D01*
X167892386Y-92201427D01*
X167892383Y-92201432D01*
X167890097Y-92206337D01*
X167888698Y-92211557D01*
X167888694Y-92211569D01*
X167830337Y-92429365D01*
X167830335Y-92429371D01*
X167828937Y-92434592D01*
X167828465Y-92439977D01*
X167828465Y-92439982D01*
X167819189Y-92546004D01*
X167808341Y-92670000D01*
X123275659Y-92670000D01*
X123255063Y-92434592D01*
X123193903Y-92206337D01*
X123094035Y-91992171D01*
X122958495Y-91798599D01*
X122852077Y-91692181D01*
X122821827Y-91642818D01*
X122817285Y-91585102D01*
X122839440Y-91531615D01*
X122883463Y-91494015D01*
X122939758Y-91480500D01*
X123038579Y-91480500D01*
X123044674Y-91480500D01*
X123117740Y-91465966D01*
X123200601Y-91410601D01*
X123255966Y-91327740D01*
X123270500Y-91254674D01*
X123270500Y-90851483D01*
X131011691Y-90851483D01*
X131012752Y-90859542D01*
X131015678Y-90881771D01*
X131030611Y-90995192D01*
X131086080Y-91129108D01*
X131091025Y-91135552D01*
X131091026Y-91135554D01*
X131169376Y-91237661D01*
X131174320Y-91244104D01*
X131289316Y-91332344D01*
X131423232Y-91387813D01*
X131566941Y-91406733D01*
X131710650Y-91387813D01*
X131844566Y-91332344D01*
X131959562Y-91244104D01*
X132047802Y-91129108D01*
X132103271Y-90995192D01*
X132122191Y-90851483D01*
X132103271Y-90707774D01*
X132047802Y-90573858D01*
X132037911Y-90560968D01*
X131964510Y-90465310D01*
X131964508Y-90465308D01*
X131959562Y-90458862D01*
X131953554Y-90454251D01*
X131926881Y-90414333D01*
X131917441Y-90366879D01*
X131917441Y-90135395D01*
X167809315Y-90135395D01*
X167828958Y-90359922D01*
X167830833Y-90370553D01*
X167889168Y-90588263D01*
X167892856Y-90598397D01*
X167988110Y-90802668D01*
X167993508Y-90812018D01*
X168041284Y-90880249D01*
X168049395Y-90887682D01*
X168058674Y-90881771D01*
X168798904Y-90141542D01*
X168805567Y-90130000D01*
X169522431Y-90130000D01*
X169529095Y-90141542D01*
X170269321Y-90881768D01*
X170278603Y-90887681D01*
X170286715Y-90880248D01*
X170334492Y-90812016D01*
X170339888Y-90802671D01*
X170435143Y-90598397D01*
X170438831Y-90588263D01*
X170497166Y-90370553D01*
X170499041Y-90359922D01*
X170515313Y-90173935D01*
X170949669Y-90173935D01*
X170980135Y-90346711D01*
X171049623Y-90507804D01*
X171053936Y-90513597D01*
X171053937Y-90513599D01*
X171108189Y-90586472D01*
X171154390Y-90648530D01*
X171288786Y-90761302D01*
X171445567Y-90840040D01*
X171616279Y-90880500D01*
X171744111Y-90880500D01*
X171747709Y-90880500D01*
X171878255Y-90865241D01*
X172043117Y-90805237D01*
X172189696Y-90708830D01*
X172310092Y-90581218D01*
X172397812Y-90429281D01*
X172448130Y-90261210D01*
X172458331Y-90086065D01*
X172427865Y-89913289D01*
X172358377Y-89752196D01*
X172253610Y-89611470D01*
X172181747Y-89551170D01*
X172124745Y-89503339D01*
X172124744Y-89503338D01*
X172119214Y-89498698D01*
X172039641Y-89458735D01*
X171968883Y-89423199D01*
X171968880Y-89423198D01*
X171962433Y-89419960D01*
X171955407Y-89418294D01*
X171955405Y-89418294D01*
X171798749Y-89381165D01*
X171798743Y-89381164D01*
X171791721Y-89379500D01*
X171660291Y-89379500D01*
X171656725Y-89379916D01*
X171656721Y-89379917D01*
X171536915Y-89393920D01*
X171536907Y-89393921D01*
X171529745Y-89394759D01*
X171522967Y-89397225D01*
X171522958Y-89397228D01*
X171371674Y-89452291D01*
X171371671Y-89452292D01*
X171364883Y-89454763D01*
X171358850Y-89458730D01*
X171358842Y-89458735D01*
X171224340Y-89547199D01*
X171224334Y-89547203D01*
X171218304Y-89551170D01*
X171213351Y-89556419D01*
X171213346Y-89556424D01*
X171102865Y-89673527D01*
X171102861Y-89673531D01*
X171097908Y-89678782D01*
X171094299Y-89685032D01*
X171094296Y-89685037D01*
X171013799Y-89824463D01*
X171013796Y-89824468D01*
X171010188Y-89830719D01*
X171008117Y-89837634D01*
X171008117Y-89837636D01*
X170961941Y-89991869D01*
X170961939Y-89991877D01*
X170959870Y-89998790D01*
X170959450Y-90005996D01*
X170959449Y-90006004D01*
X170950088Y-90166725D01*
X170950088Y-90166733D01*
X170949669Y-90173935D01*
X170515313Y-90173935D01*
X170518685Y-90135395D01*
X170518685Y-90124605D01*
X170499041Y-89900077D01*
X170497166Y-89889446D01*
X170438831Y-89671736D01*
X170435143Y-89661602D01*
X170339889Y-89457332D01*
X170334491Y-89447982D01*
X170286714Y-89379749D01*
X170278603Y-89372316D01*
X170269324Y-89378227D01*
X169529095Y-90118457D01*
X169522431Y-90130000D01*
X168805567Y-90130000D01*
X168805568Y-90129999D01*
X168798904Y-90118457D01*
X168058674Y-89378227D01*
X168049396Y-89372316D01*
X168041283Y-89379750D01*
X167993505Y-89447986D01*
X167988111Y-89457330D01*
X167892856Y-89661602D01*
X167889168Y-89671736D01*
X167830833Y-89889446D01*
X167828958Y-89900077D01*
X167809315Y-90124605D01*
X167809315Y-90135395D01*
X131917441Y-90135395D01*
X131917441Y-89015396D01*
X168406316Y-89015396D01*
X168412227Y-89024674D01*
X169152457Y-89764904D01*
X169164000Y-89771568D01*
X169175542Y-89764904D01*
X169915771Y-89024674D01*
X169921682Y-89015395D01*
X169914249Y-89007284D01*
X169846018Y-88959508D01*
X169836668Y-88954110D01*
X169632397Y-88858856D01*
X169622263Y-88855168D01*
X169404553Y-88796833D01*
X169393922Y-88794958D01*
X169169395Y-88775315D01*
X169158605Y-88775315D01*
X168934077Y-88794958D01*
X168923446Y-88796833D01*
X168705736Y-88855168D01*
X168695602Y-88858856D01*
X168491330Y-88954111D01*
X168481986Y-88959505D01*
X168413750Y-89007283D01*
X168406316Y-89015396D01*
X131917441Y-89015396D01*
X131917441Y-87069603D01*
X131926880Y-87022150D01*
X131953760Y-86981922D01*
X133702863Y-85232819D01*
X133743091Y-85205939D01*
X133790544Y-85196500D01*
X136028436Y-85196500D01*
X136086062Y-85210704D01*
X136130484Y-85250058D01*
X136151517Y-85280530D01*
X136269760Y-85385283D01*
X136409635Y-85458696D01*
X136563015Y-85496500D01*
X136713485Y-85496500D01*
X136720985Y-85496500D01*
X136874365Y-85458696D01*
X137014240Y-85385283D01*
X137132483Y-85280530D01*
X137222220Y-85150523D01*
X137278237Y-85002818D01*
X137297278Y-84846000D01*
X137278237Y-84689182D01*
X137222220Y-84541477D01*
X137132483Y-84411470D01*
X137014240Y-84306717D01*
X137007595Y-84303229D01*
X137007593Y-84303228D01*
X136881006Y-84236789D01*
X136881002Y-84236787D01*
X136874365Y-84233304D01*
X136867087Y-84231510D01*
X136867084Y-84231509D01*
X136728267Y-84197294D01*
X136728260Y-84197293D01*
X136720985Y-84195500D01*
X136563015Y-84195500D01*
X136555740Y-84197292D01*
X136555732Y-84197294D01*
X136416915Y-84231509D01*
X136416909Y-84231510D01*
X136409635Y-84233304D01*
X136403000Y-84236786D01*
X136402993Y-84236789D01*
X136276406Y-84303228D01*
X136276400Y-84303231D01*
X136269760Y-84306717D01*
X136264148Y-84311687D01*
X136264143Y-84311692D01*
X136157129Y-84406497D01*
X136157123Y-84406502D01*
X136151517Y-84411470D01*
X136130484Y-84441941D01*
X136086062Y-84481296D01*
X136028436Y-84495500D01*
X133643207Y-84495500D01*
X133620405Y-84493135D01*
X133618738Y-84493066D01*
X133608685Y-84490958D01*
X133598494Y-84492228D01*
X133598489Y-84492228D01*
X133579063Y-84494650D01*
X133573968Y-84495178D01*
X133570082Y-84495500D01*
X133564960Y-84495500D01*
X133559904Y-84496343D01*
X133559898Y-84496344D01*
X133545983Y-84498665D01*
X133540925Y-84499402D01*
X133502801Y-84504155D01*
X133502794Y-84504157D01*
X133492607Y-84505427D01*
X133485939Y-84508686D01*
X133478619Y-84509908D01*
X133469587Y-84514795D01*
X133469583Y-84514797D01*
X133435813Y-84533072D01*
X133431260Y-84535416D01*
X133396744Y-84552290D01*
X133396740Y-84552292D01*
X133387516Y-84556802D01*
X133382267Y-84562050D01*
X133375742Y-84565582D01*
X133368785Y-84573138D01*
X133368785Y-84573139D01*
X133342780Y-84601387D01*
X133339234Y-84605082D01*
X131353897Y-86590419D01*
X131336091Y-86604880D01*
X131334868Y-86606004D01*
X131326272Y-86611622D01*
X131319964Y-86619726D01*
X131319961Y-86619729D01*
X131307944Y-86635168D01*
X131304726Y-86639131D01*
X131302181Y-86642135D01*
X131298566Y-86645752D01*
X131295591Y-86649917D01*
X131295588Y-86649922D01*
X131287381Y-86661417D01*
X131284319Y-86665523D01*
X131260731Y-86695828D01*
X131260728Y-86695833D01*
X131254424Y-86703933D01*
X131252014Y-86710951D01*
X131247701Y-86716993D01*
X131244772Y-86726828D01*
X131244771Y-86726832D01*
X131233812Y-86763641D01*
X131232250Y-86768516D01*
X131219777Y-86804849D01*
X131219775Y-86804857D01*
X131216441Y-86814571D01*
X131216441Y-86821994D01*
X131214324Y-86829105D01*
X131214748Y-86839368D01*
X131214748Y-86839373D01*
X131216335Y-86877727D01*
X131216441Y-86882851D01*
X131216441Y-90366879D01*
X131207001Y-90414333D01*
X131180327Y-90454251D01*
X131174320Y-90458862D01*
X131169376Y-90465304D01*
X131169371Y-90465310D01*
X131091026Y-90567411D01*
X131091023Y-90567416D01*
X131086080Y-90573858D01*
X131082970Y-90581366D01*
X131082969Y-90581368D01*
X131033723Y-90700259D01*
X131033721Y-90700264D01*
X131030611Y-90707774D01*
X131029550Y-90715831D01*
X131029549Y-90715836D01*
X131017454Y-90807708D01*
X131011691Y-90851483D01*
X123270500Y-90851483D01*
X123270500Y-89005326D01*
X123255966Y-88932260D01*
X123200601Y-88849399D01*
X123117740Y-88794034D01*
X123105762Y-88791651D01*
X123105759Y-88791650D01*
X123050653Y-88780689D01*
X123050649Y-88780688D01*
X123044674Y-88779500D01*
X120795326Y-88779500D01*
X120789351Y-88780688D01*
X120789346Y-88780689D01*
X120734240Y-88791650D01*
X120734235Y-88791651D01*
X120722260Y-88794034D01*
X120712105Y-88800819D01*
X120712103Y-88800820D01*
X120649551Y-88842615D01*
X120649548Y-88842617D01*
X120639399Y-88849399D01*
X120632617Y-88859548D01*
X120632615Y-88859551D01*
X120590820Y-88922103D01*
X120590819Y-88922105D01*
X120584034Y-88932260D01*
X120581651Y-88944235D01*
X120581650Y-88944240D01*
X120570689Y-88999346D01*
X120570688Y-88999351D01*
X120569500Y-89005326D01*
X120569500Y-91254674D01*
X120570688Y-91260649D01*
X120570689Y-91260653D01*
X120581650Y-91315759D01*
X120581651Y-91315762D01*
X120584034Y-91327740D01*
X120639399Y-91410601D01*
X120722260Y-91465966D01*
X120795326Y-91480500D01*
X120900242Y-91480500D01*
X120956537Y-91494015D01*
X121000560Y-91531615D01*
X121022715Y-91585102D01*
X121018173Y-91642818D01*
X120987923Y-91692181D01*
X120885334Y-91794769D01*
X120885328Y-91794775D01*
X120881505Y-91798599D01*
X120878402Y-91803029D01*
X120878399Y-91803034D01*
X120749073Y-91987731D01*
X120749068Y-91987738D01*
X120745965Y-91992171D01*
X120743677Y-91997077D01*
X120743675Y-91997081D01*
X120648386Y-92201427D01*
X120648383Y-92201432D01*
X120646097Y-92206337D01*
X120644698Y-92211557D01*
X120644694Y-92211569D01*
X120586337Y-92429365D01*
X120586335Y-92429371D01*
X120584937Y-92434592D01*
X120584465Y-92439977D01*
X120584465Y-92439982D01*
X120575189Y-92546004D01*
X120564341Y-92670000D01*
X120131772Y-92670000D01*
X120134331Y-92626065D01*
X120103865Y-92453289D01*
X120034377Y-92292196D01*
X119929610Y-92151470D01*
X119857747Y-92091170D01*
X119800745Y-92043339D01*
X119800744Y-92043338D01*
X119795214Y-92038698D01*
X119715641Y-91998735D01*
X119644883Y-91963199D01*
X119644880Y-91963198D01*
X119638433Y-91959960D01*
X119631407Y-91958294D01*
X119631405Y-91958294D01*
X119474749Y-91921165D01*
X119474743Y-91921164D01*
X119467721Y-91919500D01*
X119336291Y-91919500D01*
X119332725Y-91919916D01*
X119332721Y-91919917D01*
X119212915Y-91933920D01*
X119212907Y-91933921D01*
X119205745Y-91934759D01*
X119198967Y-91937225D01*
X119198958Y-91937228D01*
X119047674Y-91992291D01*
X119047671Y-91992292D01*
X119040883Y-91994763D01*
X119034850Y-91998730D01*
X119034842Y-91998735D01*
X118900340Y-92087199D01*
X118900334Y-92087203D01*
X118894304Y-92091170D01*
X118889351Y-92096419D01*
X118889346Y-92096424D01*
X118778865Y-92213527D01*
X118778861Y-92213531D01*
X118773908Y-92218782D01*
X118770299Y-92225032D01*
X118770296Y-92225037D01*
X118689799Y-92364463D01*
X118689796Y-92364468D01*
X118686188Y-92370719D01*
X118684117Y-92377634D01*
X118684117Y-92377636D01*
X118637941Y-92531869D01*
X118637939Y-92531877D01*
X118635870Y-92538790D01*
X118635450Y-92545996D01*
X118635449Y-92546004D01*
X118626088Y-92706725D01*
X118626088Y-92706733D01*
X118625669Y-92713935D01*
X117140500Y-92713935D01*
X117140500Y-90173935D01*
X118625669Y-90173935D01*
X118656135Y-90346711D01*
X118725623Y-90507804D01*
X118729936Y-90513597D01*
X118729937Y-90513599D01*
X118784189Y-90586472D01*
X118830390Y-90648530D01*
X118964786Y-90761302D01*
X119121567Y-90840040D01*
X119292279Y-90880500D01*
X119420111Y-90880500D01*
X119423709Y-90880500D01*
X119554255Y-90865241D01*
X119719117Y-90805237D01*
X119865696Y-90708830D01*
X119986092Y-90581218D01*
X120073812Y-90429281D01*
X120124130Y-90261210D01*
X120134331Y-90086065D01*
X120103865Y-89913289D01*
X120034377Y-89752196D01*
X119929610Y-89611470D01*
X119857747Y-89551170D01*
X119800745Y-89503339D01*
X119800744Y-89503338D01*
X119795214Y-89498698D01*
X119715641Y-89458735D01*
X119644883Y-89423199D01*
X119644880Y-89423198D01*
X119638433Y-89419960D01*
X119631407Y-89418294D01*
X119631405Y-89418294D01*
X119474749Y-89381165D01*
X119474743Y-89381164D01*
X119467721Y-89379500D01*
X119336291Y-89379500D01*
X119332725Y-89379916D01*
X119332721Y-89379917D01*
X119212915Y-89393920D01*
X119212907Y-89393921D01*
X119205745Y-89394759D01*
X119198967Y-89397225D01*
X119198958Y-89397228D01*
X119047674Y-89452291D01*
X119047671Y-89452292D01*
X119040883Y-89454763D01*
X119034850Y-89458730D01*
X119034842Y-89458735D01*
X118900340Y-89547199D01*
X118900334Y-89547203D01*
X118894304Y-89551170D01*
X118889351Y-89556419D01*
X118889346Y-89556424D01*
X118778865Y-89673527D01*
X118778861Y-89673531D01*
X118773908Y-89678782D01*
X118770299Y-89685032D01*
X118770296Y-89685037D01*
X118689799Y-89824463D01*
X118689796Y-89824468D01*
X118686188Y-89830719D01*
X118684117Y-89837634D01*
X118684117Y-89837636D01*
X118637941Y-89991869D01*
X118637939Y-89991877D01*
X118635870Y-89998790D01*
X118635450Y-90005996D01*
X118635449Y-90006004D01*
X118626088Y-90166725D01*
X118626088Y-90166733D01*
X118625669Y-90173935D01*
X117140500Y-90173935D01*
X117140500Y-83664604D01*
X121082316Y-83664604D01*
X121089747Y-83672713D01*
X121157991Y-83720498D01*
X121167323Y-83725886D01*
X121371602Y-83821143D01*
X121381736Y-83824831D01*
X121599446Y-83883166D01*
X121610077Y-83885041D01*
X121834605Y-83904685D01*
X121845395Y-83904685D01*
X122069922Y-83885041D01*
X122080553Y-83883166D01*
X122298263Y-83824831D01*
X122308397Y-83821143D01*
X122512671Y-83725888D01*
X122522016Y-83720492D01*
X122590248Y-83672715D01*
X122597681Y-83664603D01*
X122591768Y-83655321D01*
X121851542Y-82915095D01*
X121840000Y-82908431D01*
X121828457Y-82915095D01*
X121088230Y-83655321D01*
X121082316Y-83664604D01*
X117140500Y-83664604D01*
X117140500Y-82593935D01*
X118545669Y-82593935D01*
X118576135Y-82766711D01*
X118645623Y-82927804D01*
X118750390Y-83068530D01*
X118884786Y-83181302D01*
X119041567Y-83260040D01*
X119212279Y-83300500D01*
X119340111Y-83300500D01*
X119343709Y-83300500D01*
X119474255Y-83285241D01*
X119639117Y-83225237D01*
X119785696Y-83128830D01*
X119906092Y-83001218D01*
X119993812Y-82849281D01*
X120044130Y-82681210D01*
X120051458Y-82555395D01*
X120485315Y-82555395D01*
X120504958Y-82779922D01*
X120506833Y-82790553D01*
X120565168Y-83008263D01*
X120568856Y-83018397D01*
X120664110Y-83222668D01*
X120669508Y-83232018D01*
X120717284Y-83300249D01*
X120725395Y-83307682D01*
X120734674Y-83301771D01*
X121474904Y-82561542D01*
X121481568Y-82550000D01*
X122198431Y-82550000D01*
X122205095Y-82561542D01*
X122945321Y-83301768D01*
X122954603Y-83307681D01*
X122962715Y-83300248D01*
X123010492Y-83232016D01*
X123015888Y-83222671D01*
X123111143Y-83018397D01*
X123114831Y-83008263D01*
X123173166Y-82790553D01*
X123175041Y-82779922D01*
X123194685Y-82555395D01*
X123194685Y-82544605D01*
X123175041Y-82320077D01*
X123173166Y-82309446D01*
X123114831Y-82091736D01*
X123111143Y-82081602D01*
X123015889Y-81877332D01*
X123010491Y-81867982D01*
X122962714Y-81799749D01*
X122954603Y-81792316D01*
X122945324Y-81798227D01*
X122205095Y-82538457D01*
X122198431Y-82550000D01*
X121481568Y-82550000D01*
X121474904Y-82538457D01*
X120734674Y-81798227D01*
X120725396Y-81792316D01*
X120717283Y-81799750D01*
X120669505Y-81867986D01*
X120664111Y-81877330D01*
X120568856Y-82081602D01*
X120565168Y-82091736D01*
X120506833Y-82309446D01*
X120504958Y-82320077D01*
X120485315Y-82544605D01*
X120485315Y-82555395D01*
X120051458Y-82555395D01*
X120054331Y-82506065D01*
X120023865Y-82333289D01*
X119954377Y-82172196D01*
X119849610Y-82031470D01*
X119777747Y-81971170D01*
X119720745Y-81923339D01*
X119720744Y-81923338D01*
X119715214Y-81918698D01*
X119635641Y-81878735D01*
X119564883Y-81843199D01*
X119564880Y-81843198D01*
X119558433Y-81839960D01*
X119551407Y-81838294D01*
X119551405Y-81838294D01*
X119394749Y-81801165D01*
X119394743Y-81801164D01*
X119387721Y-81799500D01*
X119256291Y-81799500D01*
X119252725Y-81799916D01*
X119252721Y-81799917D01*
X119132915Y-81813920D01*
X119132907Y-81813921D01*
X119125745Y-81814759D01*
X119118967Y-81817225D01*
X119118958Y-81817228D01*
X118967674Y-81872291D01*
X118967671Y-81872292D01*
X118960883Y-81874763D01*
X118954850Y-81878730D01*
X118954842Y-81878735D01*
X118820340Y-81967199D01*
X118820334Y-81967203D01*
X118814304Y-81971170D01*
X118809351Y-81976419D01*
X118809346Y-81976424D01*
X118698865Y-82093527D01*
X118698861Y-82093531D01*
X118693908Y-82098782D01*
X118690299Y-82105032D01*
X118690296Y-82105037D01*
X118609799Y-82244463D01*
X118609796Y-82244468D01*
X118606188Y-82250719D01*
X118604117Y-82257634D01*
X118604117Y-82257636D01*
X118557941Y-82411869D01*
X118557939Y-82411877D01*
X118555870Y-82418790D01*
X118555450Y-82425996D01*
X118555449Y-82426004D01*
X118546088Y-82586725D01*
X118546088Y-82586733D01*
X118545669Y-82593935D01*
X117140500Y-82593935D01*
X117140500Y-80053935D01*
X118545669Y-80053935D01*
X118576135Y-80226711D01*
X118645623Y-80387804D01*
X118649936Y-80393597D01*
X118649937Y-80393599D01*
X118746078Y-80522738D01*
X118750390Y-80528530D01*
X118884786Y-80641302D01*
X119041567Y-80720040D01*
X119212279Y-80760500D01*
X119340111Y-80760500D01*
X119343709Y-80760500D01*
X119474255Y-80745241D01*
X119639117Y-80685237D01*
X119785696Y-80588830D01*
X119906092Y-80461218D01*
X119993812Y-80309281D01*
X120044130Y-80141210D01*
X120051772Y-80010000D01*
X120484341Y-80010000D01*
X120484813Y-80015395D01*
X120503881Y-80233346D01*
X120504937Y-80245408D01*
X120506336Y-80250630D01*
X120506337Y-80250634D01*
X120564694Y-80468430D01*
X120564697Y-80468438D01*
X120566097Y-80473663D01*
X120568385Y-80478570D01*
X120568386Y-80478572D01*
X120663678Y-80682927D01*
X120663681Y-80682933D01*
X120665965Y-80687830D01*
X120669064Y-80692257D01*
X120669066Y-80692259D01*
X120798399Y-80876966D01*
X120798402Y-80876970D01*
X120801505Y-80881401D01*
X120968599Y-81048495D01*
X120973032Y-81051599D01*
X120973038Y-81051604D01*
X121154593Y-81178730D01*
X121193459Y-81223048D01*
X121207470Y-81280305D01*
X121193459Y-81337562D01*
X121154594Y-81381880D01*
X121089750Y-81427284D01*
X121082316Y-81435396D01*
X121088227Y-81444674D01*
X121828457Y-82184904D01*
X121840000Y-82191568D01*
X121851542Y-82184904D01*
X122591771Y-81444674D01*
X122597682Y-81435395D01*
X122590251Y-81427286D01*
X122525405Y-81381880D01*
X122486539Y-81337562D01*
X122472529Y-81280305D01*
X122486540Y-81223048D01*
X122525406Y-81178730D01*
X122706961Y-81051604D01*
X122706961Y-81051603D01*
X122711401Y-81048495D01*
X122878495Y-80881401D01*
X123014035Y-80687830D01*
X123113903Y-80473663D01*
X123175063Y-80245408D01*
X123195659Y-80010000D01*
X167808341Y-80010000D01*
X167808813Y-80015395D01*
X167827881Y-80233346D01*
X167828937Y-80245408D01*
X167830336Y-80250630D01*
X167830337Y-80250634D01*
X167888694Y-80468430D01*
X167888697Y-80468438D01*
X167890097Y-80473663D01*
X167892385Y-80478570D01*
X167892386Y-80478572D01*
X167987678Y-80682927D01*
X167987681Y-80682933D01*
X167989965Y-80687830D01*
X167993064Y-80692257D01*
X167993066Y-80692259D01*
X168122399Y-80876966D01*
X168122402Y-80876970D01*
X168125505Y-80881401D01*
X168129335Y-80885231D01*
X168129336Y-80885232D01*
X168231923Y-80987819D01*
X168262173Y-81037182D01*
X168266715Y-81094898D01*
X168244560Y-81148385D01*
X168200537Y-81185985D01*
X168144242Y-81199500D01*
X168039326Y-81199500D01*
X168033351Y-81200688D01*
X168033346Y-81200689D01*
X167978240Y-81211650D01*
X167978235Y-81211651D01*
X167966260Y-81214034D01*
X167956105Y-81220819D01*
X167956103Y-81220820D01*
X167893551Y-81262615D01*
X167893548Y-81262617D01*
X167883399Y-81269399D01*
X167876617Y-81279548D01*
X167876615Y-81279551D01*
X167834820Y-81342103D01*
X167834819Y-81342105D01*
X167828034Y-81352260D01*
X167825651Y-81364235D01*
X167825650Y-81364240D01*
X167814689Y-81419346D01*
X167814688Y-81419351D01*
X167813500Y-81425326D01*
X167813500Y-83674674D01*
X167814688Y-83680649D01*
X167814689Y-83680653D01*
X167825650Y-83735759D01*
X167825651Y-83735762D01*
X167828034Y-83747740D01*
X167883399Y-83830601D01*
X167966260Y-83885966D01*
X168039326Y-83900500D01*
X170282579Y-83900500D01*
X170288674Y-83900500D01*
X170361740Y-83885966D01*
X170444601Y-83830601D01*
X170499966Y-83747740D01*
X170514500Y-83674674D01*
X170514500Y-82593935D01*
X170949669Y-82593935D01*
X170980135Y-82766711D01*
X171049623Y-82927804D01*
X171154390Y-83068530D01*
X171288786Y-83181302D01*
X171445567Y-83260040D01*
X171616279Y-83300500D01*
X171744111Y-83300500D01*
X171747709Y-83300500D01*
X171878255Y-83285241D01*
X172043117Y-83225237D01*
X172189696Y-83128830D01*
X172310092Y-83001218D01*
X172397812Y-82849281D01*
X172448130Y-82681210D01*
X172458331Y-82506065D01*
X172427865Y-82333289D01*
X172358377Y-82172196D01*
X172253610Y-82031470D01*
X172181747Y-81971170D01*
X172124745Y-81923339D01*
X172124744Y-81923338D01*
X172119214Y-81918698D01*
X172039641Y-81878735D01*
X171968883Y-81843199D01*
X171968880Y-81843198D01*
X171962433Y-81839960D01*
X171955407Y-81838294D01*
X171955405Y-81838294D01*
X171798749Y-81801165D01*
X171798743Y-81801164D01*
X171791721Y-81799500D01*
X171660291Y-81799500D01*
X171656725Y-81799916D01*
X171656721Y-81799917D01*
X171536915Y-81813920D01*
X171536907Y-81813921D01*
X171529745Y-81814759D01*
X171522967Y-81817225D01*
X171522958Y-81817228D01*
X171371674Y-81872291D01*
X171371671Y-81872292D01*
X171364883Y-81874763D01*
X171358850Y-81878730D01*
X171358842Y-81878735D01*
X171224340Y-81967199D01*
X171224334Y-81967203D01*
X171218304Y-81971170D01*
X171213351Y-81976419D01*
X171213346Y-81976424D01*
X171102865Y-82093527D01*
X171102861Y-82093531D01*
X171097908Y-82098782D01*
X171094299Y-82105032D01*
X171094296Y-82105037D01*
X171013799Y-82244463D01*
X171013796Y-82244468D01*
X171010188Y-82250719D01*
X171008117Y-82257634D01*
X171008117Y-82257636D01*
X170961941Y-82411869D01*
X170961939Y-82411877D01*
X170959870Y-82418790D01*
X170959450Y-82425996D01*
X170959449Y-82426004D01*
X170950088Y-82586725D01*
X170950088Y-82586733D01*
X170949669Y-82593935D01*
X170514500Y-82593935D01*
X170514500Y-81425326D01*
X170499966Y-81352260D01*
X170444601Y-81269399D01*
X170361740Y-81214034D01*
X170349762Y-81211651D01*
X170349759Y-81211650D01*
X170294653Y-81200689D01*
X170294649Y-81200688D01*
X170288674Y-81199500D01*
X170282579Y-81199500D01*
X170183758Y-81199500D01*
X170127463Y-81185985D01*
X170083440Y-81148385D01*
X170061285Y-81094898D01*
X170065827Y-81037182D01*
X170096077Y-80987819D01*
X170096076Y-80987819D01*
X170202495Y-80881401D01*
X170338035Y-80687830D01*
X170437903Y-80473663D01*
X170499063Y-80245408D01*
X170515815Y-80053935D01*
X170949669Y-80053935D01*
X170980135Y-80226711D01*
X171049623Y-80387804D01*
X171053936Y-80393597D01*
X171053937Y-80393599D01*
X171150078Y-80522738D01*
X171154390Y-80528530D01*
X171288786Y-80641302D01*
X171445567Y-80720040D01*
X171616279Y-80760500D01*
X171744111Y-80760500D01*
X171747709Y-80760500D01*
X171878255Y-80745241D01*
X172043117Y-80685237D01*
X172189696Y-80588830D01*
X172310092Y-80461218D01*
X172397812Y-80309281D01*
X172448130Y-80141210D01*
X172458331Y-79966065D01*
X172427865Y-79793289D01*
X172358377Y-79632196D01*
X172253610Y-79491470D01*
X172181747Y-79431170D01*
X172124745Y-79383339D01*
X172124744Y-79383338D01*
X172119214Y-79378698D01*
X172039641Y-79338735D01*
X171968883Y-79303199D01*
X171968880Y-79303198D01*
X171962433Y-79299960D01*
X171955407Y-79298294D01*
X171955405Y-79298294D01*
X171798749Y-79261165D01*
X171798743Y-79261164D01*
X171791721Y-79259500D01*
X171660291Y-79259500D01*
X171656725Y-79259916D01*
X171656721Y-79259917D01*
X171536915Y-79273920D01*
X171536907Y-79273921D01*
X171529745Y-79274759D01*
X171522967Y-79277225D01*
X171522958Y-79277228D01*
X171371674Y-79332291D01*
X171371671Y-79332292D01*
X171364883Y-79334763D01*
X171358850Y-79338730D01*
X171358842Y-79338735D01*
X171224340Y-79427199D01*
X171224334Y-79427203D01*
X171218304Y-79431170D01*
X171213351Y-79436419D01*
X171213346Y-79436424D01*
X171102865Y-79553527D01*
X171102861Y-79553531D01*
X171097908Y-79558782D01*
X171094299Y-79565032D01*
X171094296Y-79565037D01*
X171013799Y-79704463D01*
X171013796Y-79704468D01*
X171010188Y-79710719D01*
X171008117Y-79717634D01*
X171008117Y-79717636D01*
X170961941Y-79871869D01*
X170961939Y-79871877D01*
X170959870Y-79878790D01*
X170959450Y-79885996D01*
X170959449Y-79886004D01*
X170950088Y-80046725D01*
X170950088Y-80046733D01*
X170949669Y-80053935D01*
X170515815Y-80053935D01*
X170519659Y-80010000D01*
X170499063Y-79774592D01*
X170437903Y-79546337D01*
X170338035Y-79332171D01*
X170202495Y-79138599D01*
X170035401Y-78971505D01*
X170030970Y-78968402D01*
X170030966Y-78968399D01*
X169849405Y-78841269D01*
X169810540Y-78796951D01*
X169796529Y-78739694D01*
X169810539Y-78682438D01*
X169849405Y-78638120D01*
X169914248Y-78592715D01*
X169921681Y-78584603D01*
X169915768Y-78575321D01*
X169175542Y-77835095D01*
X169164000Y-77828431D01*
X169152457Y-77835095D01*
X168412230Y-78575321D01*
X168406316Y-78584604D01*
X168413749Y-78592715D01*
X168478594Y-78638120D01*
X168517460Y-78682438D01*
X168531471Y-78739695D01*
X168517460Y-78796952D01*
X168478594Y-78841270D01*
X168297034Y-78968399D01*
X168297029Y-78968402D01*
X168292599Y-78971505D01*
X168288775Y-78975328D01*
X168288769Y-78975334D01*
X168129334Y-79134769D01*
X168129328Y-79134775D01*
X168125505Y-79138599D01*
X168122402Y-79143029D01*
X168122399Y-79143034D01*
X167993073Y-79327731D01*
X167993068Y-79327738D01*
X167989965Y-79332171D01*
X167987677Y-79337077D01*
X167987675Y-79337081D01*
X167892386Y-79541427D01*
X167892383Y-79541432D01*
X167890097Y-79546337D01*
X167888698Y-79551557D01*
X167888694Y-79551569D01*
X167830337Y-79769365D01*
X167830335Y-79769371D01*
X167828937Y-79774592D01*
X167828465Y-79779977D01*
X167828465Y-79779982D01*
X167819189Y-79886004D01*
X167808341Y-80010000D01*
X123195659Y-80010000D01*
X123175063Y-79774592D01*
X123113903Y-79546337D01*
X123014035Y-79332171D01*
X122878495Y-79138599D01*
X122772076Y-79032180D01*
X122741827Y-78982818D01*
X122737285Y-78925102D01*
X122759440Y-78871615D01*
X122803463Y-78834015D01*
X122859758Y-78820500D01*
X122958579Y-78820500D01*
X122964674Y-78820500D01*
X123037740Y-78805966D01*
X123120601Y-78750601D01*
X123175966Y-78667740D01*
X123190500Y-78594674D01*
X123190500Y-77475395D01*
X167809315Y-77475395D01*
X167828958Y-77699922D01*
X167830833Y-77710553D01*
X167889168Y-77928263D01*
X167892856Y-77938397D01*
X167988110Y-78142668D01*
X167993508Y-78152018D01*
X168041284Y-78220249D01*
X168049395Y-78227682D01*
X168058674Y-78221771D01*
X168798904Y-77481542D01*
X168805568Y-77470000D01*
X169522431Y-77470000D01*
X169529095Y-77481542D01*
X170269321Y-78221768D01*
X170278603Y-78227681D01*
X170286715Y-78220248D01*
X170334492Y-78152016D01*
X170339888Y-78142671D01*
X170435143Y-77938397D01*
X170438831Y-77928263D01*
X170497166Y-77710553D01*
X170499041Y-77699922D01*
X170515313Y-77513935D01*
X170949669Y-77513935D01*
X170980135Y-77686711D01*
X171049623Y-77847804D01*
X171154390Y-77988530D01*
X171288786Y-78101302D01*
X171445567Y-78180040D01*
X171616279Y-78220500D01*
X171744111Y-78220500D01*
X171747709Y-78220500D01*
X171878255Y-78205241D01*
X172043117Y-78145237D01*
X172189696Y-78048830D01*
X172310092Y-77921218D01*
X172397812Y-77769281D01*
X172448130Y-77601210D01*
X172458331Y-77426065D01*
X172427865Y-77253289D01*
X172358377Y-77092196D01*
X172253610Y-76951470D01*
X172181747Y-76891170D01*
X172124745Y-76843339D01*
X172124744Y-76843338D01*
X172119214Y-76838698D01*
X172039641Y-76798735D01*
X171968883Y-76763199D01*
X171968880Y-76763198D01*
X171962433Y-76759960D01*
X171955407Y-76758294D01*
X171955405Y-76758294D01*
X171798749Y-76721165D01*
X171798743Y-76721164D01*
X171791721Y-76719500D01*
X171660291Y-76719500D01*
X171656725Y-76719916D01*
X171656721Y-76719917D01*
X171536915Y-76733920D01*
X171536907Y-76733921D01*
X171529745Y-76734759D01*
X171522967Y-76737225D01*
X171522958Y-76737228D01*
X171371674Y-76792291D01*
X171371671Y-76792292D01*
X171364883Y-76794763D01*
X171358850Y-76798730D01*
X171358842Y-76798735D01*
X171224340Y-76887199D01*
X171224334Y-76887203D01*
X171218304Y-76891170D01*
X171213351Y-76896419D01*
X171213346Y-76896424D01*
X171102865Y-77013527D01*
X171102861Y-77013531D01*
X171097908Y-77018782D01*
X171094299Y-77025032D01*
X171094296Y-77025037D01*
X171013799Y-77164463D01*
X171013796Y-77164468D01*
X171010188Y-77170719D01*
X171008117Y-77177634D01*
X171008117Y-77177636D01*
X170961941Y-77331869D01*
X170961939Y-77331877D01*
X170959870Y-77338790D01*
X170959450Y-77345996D01*
X170959449Y-77346004D01*
X170950088Y-77506725D01*
X170950088Y-77506733D01*
X170949669Y-77513935D01*
X170515313Y-77513935D01*
X170518685Y-77475395D01*
X170518685Y-77464605D01*
X170499041Y-77240077D01*
X170497166Y-77229446D01*
X170438831Y-77011736D01*
X170435143Y-77001602D01*
X170339889Y-76797332D01*
X170334491Y-76787982D01*
X170286714Y-76719749D01*
X170278603Y-76712316D01*
X170269324Y-76718227D01*
X169529095Y-77458457D01*
X169522431Y-77470000D01*
X168805568Y-77470000D01*
X168798904Y-77458457D01*
X168058674Y-76718227D01*
X168049396Y-76712316D01*
X168041283Y-76719750D01*
X167993505Y-76787986D01*
X167988111Y-76797330D01*
X167892856Y-77001602D01*
X167889168Y-77011736D01*
X167830833Y-77229446D01*
X167828958Y-77240077D01*
X167809315Y-77464605D01*
X167809315Y-77475395D01*
X123190500Y-77475395D01*
X123190500Y-76355396D01*
X168406316Y-76355396D01*
X168412227Y-76364674D01*
X169152457Y-77104904D01*
X169164000Y-77111568D01*
X169175542Y-77104904D01*
X169915771Y-76364674D01*
X169921682Y-76355395D01*
X169914249Y-76347284D01*
X169846018Y-76299508D01*
X169836668Y-76294110D01*
X169632397Y-76198856D01*
X169622263Y-76195168D01*
X169404553Y-76136833D01*
X169393922Y-76134958D01*
X169169395Y-76115315D01*
X169158605Y-76115315D01*
X168934077Y-76134958D01*
X168923446Y-76136833D01*
X168705736Y-76195168D01*
X168695602Y-76198856D01*
X168491330Y-76294111D01*
X168481986Y-76299505D01*
X168413750Y-76347283D01*
X168406316Y-76355396D01*
X123190500Y-76355396D01*
X123190500Y-76345326D01*
X123175966Y-76272260D01*
X123120601Y-76189399D01*
X123037740Y-76134034D01*
X123025762Y-76131651D01*
X123025759Y-76131650D01*
X122970653Y-76120689D01*
X122970649Y-76120688D01*
X122964674Y-76119500D01*
X120715326Y-76119500D01*
X120709351Y-76120688D01*
X120709346Y-76120689D01*
X120654240Y-76131650D01*
X120654235Y-76131651D01*
X120642260Y-76134034D01*
X120632105Y-76140819D01*
X120632103Y-76140820D01*
X120569551Y-76182615D01*
X120569548Y-76182617D01*
X120559399Y-76189399D01*
X120552617Y-76199548D01*
X120552615Y-76199551D01*
X120510820Y-76262103D01*
X120510819Y-76262105D01*
X120504034Y-76272260D01*
X120501651Y-76284235D01*
X120501650Y-76284240D01*
X120490689Y-76339346D01*
X120490688Y-76339351D01*
X120489500Y-76345326D01*
X120489500Y-78594674D01*
X120490688Y-78600649D01*
X120490689Y-78600653D01*
X120501650Y-78655759D01*
X120501651Y-78655762D01*
X120504034Y-78667740D01*
X120559399Y-78750601D01*
X120642260Y-78805966D01*
X120715326Y-78820500D01*
X120820242Y-78820500D01*
X120876537Y-78834015D01*
X120920560Y-78871615D01*
X120942715Y-78925102D01*
X120938173Y-78982818D01*
X120907923Y-79032181D01*
X120805334Y-79134769D01*
X120805328Y-79134775D01*
X120801505Y-79138599D01*
X120798402Y-79143029D01*
X120798399Y-79143034D01*
X120669073Y-79327731D01*
X120669068Y-79327738D01*
X120665965Y-79332171D01*
X120663677Y-79337077D01*
X120663675Y-79337081D01*
X120568386Y-79541427D01*
X120568383Y-79541432D01*
X120566097Y-79546337D01*
X120564698Y-79551557D01*
X120564694Y-79551569D01*
X120506337Y-79769365D01*
X120506335Y-79769371D01*
X120504937Y-79774592D01*
X120504465Y-79779977D01*
X120504465Y-79779982D01*
X120495189Y-79886004D01*
X120484341Y-80010000D01*
X120051772Y-80010000D01*
X120054331Y-79966065D01*
X120023865Y-79793289D01*
X119954377Y-79632196D01*
X119849610Y-79491470D01*
X119777747Y-79431170D01*
X119720745Y-79383339D01*
X119720744Y-79383338D01*
X119715214Y-79378698D01*
X119635641Y-79338735D01*
X119564883Y-79303199D01*
X119564880Y-79303198D01*
X119558433Y-79299960D01*
X119551407Y-79298294D01*
X119551405Y-79298294D01*
X119394749Y-79261165D01*
X119394743Y-79261164D01*
X119387721Y-79259500D01*
X119256291Y-79259500D01*
X119252725Y-79259916D01*
X119252721Y-79259917D01*
X119132915Y-79273920D01*
X119132907Y-79273921D01*
X119125745Y-79274759D01*
X119118967Y-79277225D01*
X119118958Y-79277228D01*
X118967674Y-79332291D01*
X118967671Y-79332292D01*
X118960883Y-79334763D01*
X118954850Y-79338730D01*
X118954842Y-79338735D01*
X118820340Y-79427199D01*
X118820334Y-79427203D01*
X118814304Y-79431170D01*
X118809351Y-79436419D01*
X118809346Y-79436424D01*
X118698865Y-79553527D01*
X118698861Y-79553531D01*
X118693908Y-79558782D01*
X118690299Y-79565032D01*
X118690296Y-79565037D01*
X118609799Y-79704463D01*
X118609796Y-79704468D01*
X118606188Y-79710719D01*
X118604117Y-79717634D01*
X118604117Y-79717636D01*
X118557941Y-79871869D01*
X118557939Y-79871877D01*
X118555870Y-79878790D01*
X118555450Y-79885996D01*
X118555449Y-79886004D01*
X118546088Y-80046725D01*
X118546088Y-80046733D01*
X118545669Y-80053935D01*
X117140500Y-80053935D01*
X117140500Y-77513935D01*
X118545669Y-77513935D01*
X118576135Y-77686711D01*
X118645623Y-77847804D01*
X118750390Y-77988530D01*
X118884786Y-78101302D01*
X119041567Y-78180040D01*
X119212279Y-78220500D01*
X119340111Y-78220500D01*
X119343709Y-78220500D01*
X119474255Y-78205241D01*
X119639117Y-78145237D01*
X119785696Y-78048830D01*
X119906092Y-77921218D01*
X119993812Y-77769281D01*
X120044130Y-77601210D01*
X120054331Y-77426065D01*
X120023865Y-77253289D01*
X119954377Y-77092196D01*
X119849610Y-76951470D01*
X119777747Y-76891170D01*
X119720745Y-76843339D01*
X119720744Y-76843338D01*
X119715214Y-76838698D01*
X119635641Y-76798735D01*
X119564883Y-76763199D01*
X119564880Y-76763198D01*
X119558433Y-76759960D01*
X119551407Y-76758294D01*
X119551405Y-76758294D01*
X119394749Y-76721165D01*
X119394743Y-76721164D01*
X119387721Y-76719500D01*
X119256291Y-76719500D01*
X119252725Y-76719916D01*
X119252721Y-76719917D01*
X119132915Y-76733920D01*
X119132907Y-76733921D01*
X119125745Y-76734759D01*
X119118967Y-76737225D01*
X119118958Y-76737228D01*
X118967674Y-76792291D01*
X118967671Y-76792292D01*
X118960883Y-76794763D01*
X118954850Y-76798730D01*
X118954842Y-76798735D01*
X118820340Y-76887199D01*
X118820334Y-76887203D01*
X118814304Y-76891170D01*
X118809351Y-76896419D01*
X118809346Y-76896424D01*
X118698865Y-77013527D01*
X118698861Y-77013531D01*
X118693908Y-77018782D01*
X118690299Y-77025032D01*
X118690296Y-77025037D01*
X118609799Y-77164463D01*
X118609796Y-77164468D01*
X118606188Y-77170719D01*
X118604117Y-77177634D01*
X118604117Y-77177636D01*
X118557941Y-77331869D01*
X118557939Y-77331877D01*
X118555870Y-77338790D01*
X118555450Y-77345996D01*
X118555449Y-77346004D01*
X118546088Y-77506725D01*
X118546088Y-77506733D01*
X118545669Y-77513935D01*
X117140500Y-77513935D01*
X117140500Y-72234604D01*
X121082316Y-72234604D01*
X121089747Y-72242713D01*
X121157991Y-72290498D01*
X121167323Y-72295886D01*
X121371602Y-72391143D01*
X121381736Y-72394831D01*
X121599446Y-72453166D01*
X121610077Y-72455041D01*
X121834605Y-72474685D01*
X121845395Y-72474685D01*
X122069922Y-72455041D01*
X122080553Y-72453166D01*
X122298263Y-72394831D01*
X122308397Y-72391143D01*
X122512671Y-72295888D01*
X122522016Y-72290492D01*
X122590248Y-72242715D01*
X122597681Y-72234603D01*
X122591768Y-72225321D01*
X121851542Y-71485095D01*
X121840000Y-71478431D01*
X121828457Y-71485095D01*
X121088230Y-72225321D01*
X121082316Y-72234604D01*
X117140500Y-72234604D01*
X117140500Y-71163935D01*
X118545669Y-71163935D01*
X118576135Y-71336711D01*
X118645623Y-71497804D01*
X118649936Y-71503597D01*
X118649937Y-71503599D01*
X118687631Y-71554230D01*
X118750390Y-71638530D01*
X118884786Y-71751302D01*
X119041567Y-71830040D01*
X119212279Y-71870500D01*
X119340111Y-71870500D01*
X119343709Y-71870500D01*
X119474255Y-71855241D01*
X119639117Y-71795237D01*
X119785696Y-71698830D01*
X119906092Y-71571218D01*
X119993812Y-71419281D01*
X120044130Y-71251210D01*
X120051458Y-71125395D01*
X120485315Y-71125395D01*
X120504958Y-71349922D01*
X120506833Y-71360553D01*
X120565168Y-71578263D01*
X120568856Y-71588397D01*
X120664110Y-71792668D01*
X120669508Y-71802018D01*
X120717284Y-71870249D01*
X120725395Y-71877682D01*
X120734674Y-71871771D01*
X121474904Y-71131542D01*
X121481568Y-71120000D01*
X122198431Y-71120000D01*
X122205095Y-71131542D01*
X122945321Y-71871768D01*
X122954603Y-71877681D01*
X122962715Y-71870248D01*
X123010492Y-71802016D01*
X123015888Y-71792671D01*
X123111143Y-71588397D01*
X123114831Y-71578263D01*
X123173166Y-71360553D01*
X123175041Y-71349922D01*
X123194685Y-71125395D01*
X123194685Y-71114605D01*
X123175041Y-70890077D01*
X123173166Y-70879446D01*
X123114831Y-70661736D01*
X123111143Y-70651602D01*
X123015889Y-70447332D01*
X123010491Y-70437982D01*
X122962714Y-70369749D01*
X122954603Y-70362316D01*
X122945324Y-70368227D01*
X122205095Y-71108457D01*
X122198431Y-71120000D01*
X121481568Y-71120000D01*
X121474904Y-71108457D01*
X120734674Y-70368227D01*
X120725396Y-70362316D01*
X120717283Y-70369750D01*
X120669505Y-70437986D01*
X120664111Y-70447330D01*
X120568856Y-70651602D01*
X120565168Y-70661736D01*
X120506833Y-70879446D01*
X120504958Y-70890077D01*
X120485315Y-71114605D01*
X120485315Y-71125395D01*
X120051458Y-71125395D01*
X120054331Y-71076065D01*
X120023865Y-70903289D01*
X119954377Y-70742196D01*
X119849610Y-70601470D01*
X119777747Y-70541170D01*
X119720745Y-70493339D01*
X119720744Y-70493338D01*
X119715214Y-70488698D01*
X119669439Y-70465709D01*
X119564883Y-70413199D01*
X119564880Y-70413198D01*
X119558433Y-70409960D01*
X119551407Y-70408294D01*
X119551405Y-70408294D01*
X119394749Y-70371165D01*
X119394743Y-70371164D01*
X119387721Y-70369500D01*
X119256291Y-70369500D01*
X119252725Y-70369916D01*
X119252721Y-70369917D01*
X119132915Y-70383920D01*
X119132907Y-70383921D01*
X119125745Y-70384759D01*
X119118967Y-70387225D01*
X119118958Y-70387228D01*
X118967674Y-70442291D01*
X118967671Y-70442292D01*
X118960883Y-70444763D01*
X118954850Y-70448730D01*
X118954842Y-70448735D01*
X118820340Y-70537199D01*
X118820334Y-70537203D01*
X118814304Y-70541170D01*
X118809351Y-70546419D01*
X118809346Y-70546424D01*
X118698865Y-70663527D01*
X118698861Y-70663531D01*
X118693908Y-70668782D01*
X118690299Y-70675032D01*
X118690296Y-70675037D01*
X118609799Y-70814463D01*
X118609796Y-70814468D01*
X118606188Y-70820719D01*
X118604117Y-70827634D01*
X118604117Y-70827636D01*
X118557941Y-70981869D01*
X118557939Y-70981877D01*
X118555870Y-70988790D01*
X118555450Y-70995996D01*
X118555449Y-70996004D01*
X118546088Y-71156725D01*
X118546088Y-71156733D01*
X118545669Y-71163935D01*
X117140500Y-71163935D01*
X117140500Y-68623935D01*
X118545669Y-68623935D01*
X118576135Y-68796711D01*
X118645623Y-68957804D01*
X118649936Y-68963597D01*
X118649937Y-68963599D01*
X118746078Y-69092738D01*
X118750390Y-69098530D01*
X118884786Y-69211302D01*
X119041567Y-69290040D01*
X119212279Y-69330500D01*
X119340111Y-69330500D01*
X119343709Y-69330500D01*
X119474255Y-69315241D01*
X119639117Y-69255237D01*
X119785696Y-69158830D01*
X119906092Y-69031218D01*
X119993812Y-68879281D01*
X120044130Y-68711210D01*
X120051772Y-68580000D01*
X120484341Y-68580000D01*
X120484813Y-68585395D01*
X120503881Y-68803346D01*
X120504937Y-68815408D01*
X120506336Y-68820630D01*
X120506337Y-68820634D01*
X120564694Y-69038430D01*
X120564697Y-69038438D01*
X120566097Y-69043663D01*
X120568385Y-69048570D01*
X120568386Y-69048572D01*
X120663678Y-69252927D01*
X120663681Y-69252933D01*
X120665965Y-69257830D01*
X120669064Y-69262257D01*
X120669066Y-69262259D01*
X120798399Y-69446966D01*
X120798402Y-69446970D01*
X120801505Y-69451401D01*
X120968599Y-69618495D01*
X120973032Y-69621599D01*
X120973038Y-69621604D01*
X121154593Y-69748730D01*
X121193459Y-69793048D01*
X121207470Y-69850305D01*
X121193459Y-69907562D01*
X121154594Y-69951880D01*
X121089750Y-69997284D01*
X121082316Y-70005396D01*
X121088227Y-70014674D01*
X121828457Y-70754904D01*
X121839999Y-70761568D01*
X121851542Y-70754904D01*
X122284445Y-70322000D01*
X161206750Y-70322000D01*
X161207811Y-70330059D01*
X161223250Y-70447332D01*
X161225670Y-70465709D01*
X161228781Y-70473220D01*
X161228782Y-70473223D01*
X161252061Y-70529424D01*
X161261500Y-70576876D01*
X161261500Y-70762856D01*
X161260043Y-70776405D01*
X161260159Y-70776414D01*
X161259525Y-70785262D01*
X161257641Y-70793927D01*
X161258273Y-70802767D01*
X161258273Y-70802773D01*
X161261184Y-70843461D01*
X161261500Y-70852308D01*
X161261500Y-70865799D01*
X161262130Y-70870180D01*
X161263420Y-70879155D01*
X161264365Y-70887946D01*
X161264517Y-70890077D01*
X161267909Y-70937483D01*
X161271006Y-70945789D01*
X161272892Y-70954455D01*
X161272779Y-70954479D01*
X161272964Y-70955203D01*
X161273075Y-70955171D01*
X161275572Y-70963676D01*
X161276835Y-70972457D01*
X161280519Y-70980524D01*
X161280520Y-70980527D01*
X161297457Y-71017613D01*
X161300845Y-71025790D01*
X161315104Y-71064021D01*
X161315105Y-71064023D01*
X161318204Y-71072331D01*
X161323519Y-71079431D01*
X161327768Y-71087212D01*
X161327666Y-71087267D01*
X161328046Y-71087907D01*
X161328143Y-71087845D01*
X161332939Y-71095307D01*
X161336623Y-71103373D01*
X161369147Y-71140907D01*
X161374688Y-71147785D01*
X161382779Y-71158593D01*
X161385916Y-71161730D01*
X161392322Y-71168136D01*
X161398354Y-71174615D01*
X161425065Y-71205442D01*
X161425067Y-71205444D01*
X161430872Y-71212143D01*
X161438328Y-71216934D01*
X161445037Y-71222748D01*
X161444961Y-71222835D01*
X161455571Y-71231385D01*
X161650613Y-71426427D01*
X161659164Y-71437038D01*
X161659252Y-71436963D01*
X161665063Y-71443668D01*
X161669857Y-71451128D01*
X161707400Y-71483658D01*
X161713862Y-71489676D01*
X161723407Y-71499221D01*
X161731390Y-71505197D01*
X161734207Y-71507306D01*
X161741099Y-71512860D01*
X161771919Y-71539566D01*
X161771925Y-71539570D01*
X161778627Y-71545377D01*
X161786694Y-71549061D01*
X161794154Y-71553855D01*
X161794090Y-71553953D01*
X161794729Y-71554332D01*
X161794785Y-71554230D01*
X161802565Y-71558478D01*
X161809669Y-71563796D01*
X161856222Y-71581159D01*
X161864360Y-71584530D01*
X161909543Y-71605165D01*
X161918326Y-71606427D01*
X161926832Y-71608925D01*
X161926798Y-71609037D01*
X161927515Y-71609220D01*
X161927540Y-71609106D01*
X161936204Y-71610990D01*
X161944517Y-71614091D01*
X161994052Y-71617633D01*
X162002837Y-71618578D01*
X162016201Y-71620500D01*
X162029692Y-71620500D01*
X162038538Y-71620815D01*
X162088073Y-71624359D01*
X162096739Y-71622473D01*
X162105586Y-71621841D01*
X162105594Y-71621956D01*
X162119144Y-71620500D01*
X162742039Y-71620500D01*
X167689500Y-71620500D01*
X167751500Y-71637113D01*
X167796887Y-71682500D01*
X167813500Y-71744500D01*
X167813500Y-72244674D01*
X167814688Y-72250649D01*
X167814689Y-72250653D01*
X167825650Y-72305759D01*
X167825651Y-72305762D01*
X167828034Y-72317740D01*
X167883399Y-72400601D01*
X167966260Y-72455966D01*
X168039326Y-72470500D01*
X170282579Y-72470500D01*
X170288674Y-72470500D01*
X170361740Y-72455966D01*
X170444601Y-72400601D01*
X170499966Y-72317740D01*
X170514500Y-72244674D01*
X170514500Y-71163935D01*
X170949669Y-71163935D01*
X170980135Y-71336711D01*
X171049623Y-71497804D01*
X171053936Y-71503597D01*
X171053937Y-71503599D01*
X171091631Y-71554230D01*
X171154390Y-71638530D01*
X171288786Y-71751302D01*
X171445567Y-71830040D01*
X171616279Y-71870500D01*
X171744111Y-71870500D01*
X171747709Y-71870500D01*
X171878255Y-71855241D01*
X172043117Y-71795237D01*
X172189696Y-71698830D01*
X172310092Y-71571218D01*
X172397812Y-71419281D01*
X172448130Y-71251210D01*
X172458331Y-71076065D01*
X172427865Y-70903289D01*
X172358377Y-70742196D01*
X172253610Y-70601470D01*
X172181747Y-70541170D01*
X172124745Y-70493339D01*
X172124744Y-70493338D01*
X172119214Y-70488698D01*
X172073439Y-70465709D01*
X171968883Y-70413199D01*
X171968880Y-70413198D01*
X171962433Y-70409960D01*
X171955407Y-70408294D01*
X171955405Y-70408294D01*
X171798749Y-70371165D01*
X171798743Y-70371164D01*
X171791721Y-70369500D01*
X171660291Y-70369500D01*
X171656725Y-70369916D01*
X171656721Y-70369917D01*
X171536915Y-70383920D01*
X171536907Y-70383921D01*
X171529745Y-70384759D01*
X171522967Y-70387225D01*
X171522958Y-70387228D01*
X171371674Y-70442291D01*
X171371671Y-70442292D01*
X171364883Y-70444763D01*
X171358850Y-70448730D01*
X171358842Y-70448735D01*
X171224340Y-70537199D01*
X171224334Y-70537203D01*
X171218304Y-70541170D01*
X171213351Y-70546419D01*
X171213346Y-70546424D01*
X171102865Y-70663527D01*
X171102861Y-70663531D01*
X171097908Y-70668782D01*
X171094299Y-70675032D01*
X171094296Y-70675037D01*
X171013799Y-70814463D01*
X171013796Y-70814468D01*
X171010188Y-70820719D01*
X171008117Y-70827634D01*
X171008117Y-70827636D01*
X170961941Y-70981869D01*
X170961939Y-70981877D01*
X170959870Y-70988790D01*
X170959450Y-70995996D01*
X170959449Y-70996004D01*
X170950088Y-71156725D01*
X170950088Y-71156733D01*
X170949669Y-71163935D01*
X170514500Y-71163935D01*
X170514500Y-69995326D01*
X170499966Y-69922260D01*
X170444601Y-69839399D01*
X170361740Y-69784034D01*
X170349762Y-69781651D01*
X170349759Y-69781650D01*
X170294653Y-69770689D01*
X170294649Y-69770688D01*
X170288674Y-69769500D01*
X170282579Y-69769500D01*
X170183758Y-69769500D01*
X170127463Y-69755985D01*
X170083440Y-69718385D01*
X170061285Y-69664898D01*
X170065827Y-69607182D01*
X170096077Y-69557819D01*
X170096077Y-69557818D01*
X170202495Y-69451401D01*
X170338035Y-69257830D01*
X170437903Y-69043663D01*
X170499063Y-68815408D01*
X170515815Y-68623935D01*
X170949669Y-68623935D01*
X170980135Y-68796711D01*
X171049623Y-68957804D01*
X171053936Y-68963597D01*
X171053937Y-68963599D01*
X171150078Y-69092738D01*
X171154390Y-69098530D01*
X171288786Y-69211302D01*
X171445567Y-69290040D01*
X171616279Y-69330500D01*
X171744111Y-69330500D01*
X171747709Y-69330500D01*
X171878255Y-69315241D01*
X172043117Y-69255237D01*
X172189696Y-69158830D01*
X172310092Y-69031218D01*
X172397812Y-68879281D01*
X172448130Y-68711210D01*
X172458331Y-68536065D01*
X172427865Y-68363289D01*
X172358377Y-68202196D01*
X172253610Y-68061470D01*
X172181747Y-68001170D01*
X172124745Y-67953339D01*
X172124744Y-67953338D01*
X172119214Y-67948698D01*
X172039641Y-67908735D01*
X171968883Y-67873199D01*
X171968880Y-67873198D01*
X171962433Y-67869960D01*
X171955407Y-67868294D01*
X171955405Y-67868294D01*
X171798749Y-67831165D01*
X171798743Y-67831164D01*
X171791721Y-67829500D01*
X171660291Y-67829500D01*
X171656725Y-67829916D01*
X171656721Y-67829917D01*
X171536915Y-67843920D01*
X171536907Y-67843921D01*
X171529745Y-67844759D01*
X171522967Y-67847225D01*
X171522958Y-67847228D01*
X171371674Y-67902291D01*
X171371671Y-67902292D01*
X171364883Y-67904763D01*
X171358850Y-67908730D01*
X171358842Y-67908735D01*
X171224340Y-67997199D01*
X171224334Y-67997203D01*
X171218304Y-68001170D01*
X171213351Y-68006419D01*
X171213346Y-68006424D01*
X171102865Y-68123527D01*
X171102861Y-68123531D01*
X171097908Y-68128782D01*
X171094299Y-68135032D01*
X171094296Y-68135037D01*
X171013799Y-68274463D01*
X171013796Y-68274468D01*
X171010188Y-68280719D01*
X171008117Y-68287634D01*
X171008117Y-68287636D01*
X170961941Y-68441869D01*
X170961939Y-68441877D01*
X170959870Y-68448790D01*
X170959450Y-68455996D01*
X170959449Y-68456004D01*
X170950088Y-68616725D01*
X170950088Y-68616733D01*
X170949669Y-68623935D01*
X170515815Y-68623935D01*
X170519659Y-68580000D01*
X170499063Y-68344592D01*
X170437903Y-68116337D01*
X170338035Y-67902171D01*
X170202495Y-67708599D01*
X170035401Y-67541505D01*
X170030970Y-67538402D01*
X170030966Y-67538399D01*
X169849405Y-67411269D01*
X169810540Y-67366951D01*
X169796529Y-67309694D01*
X169810539Y-67252438D01*
X169849405Y-67208120D01*
X169914248Y-67162715D01*
X169921681Y-67154603D01*
X169915768Y-67145321D01*
X169175542Y-66405095D01*
X169164000Y-66398431D01*
X169152457Y-66405095D01*
X168412230Y-67145321D01*
X168406316Y-67154604D01*
X168413749Y-67162715D01*
X168478594Y-67208120D01*
X168517460Y-67252438D01*
X168531471Y-67309695D01*
X168517460Y-67366952D01*
X168478594Y-67411270D01*
X168297034Y-67538399D01*
X168297029Y-67538402D01*
X168292599Y-67541505D01*
X168288775Y-67545328D01*
X168288769Y-67545334D01*
X168129334Y-67704769D01*
X168129328Y-67704775D01*
X168125505Y-67708599D01*
X168122402Y-67713029D01*
X168122399Y-67713034D01*
X167993073Y-67897731D01*
X167993068Y-67897738D01*
X167989965Y-67902171D01*
X167987677Y-67907077D01*
X167987675Y-67907081D01*
X167892386Y-68111427D01*
X167892383Y-68111432D01*
X167890097Y-68116337D01*
X167888698Y-68121557D01*
X167888694Y-68121569D01*
X167830337Y-68339365D01*
X167830335Y-68339371D01*
X167828937Y-68344592D01*
X167828465Y-68349977D01*
X167828465Y-68349982D01*
X167819189Y-68456004D01*
X167808341Y-68580000D01*
X167808813Y-68585395D01*
X167827881Y-68803346D01*
X167828937Y-68815408D01*
X167830336Y-68820630D01*
X167830337Y-68820634D01*
X167888694Y-69038430D01*
X167888697Y-69038438D01*
X167890097Y-69043663D01*
X167892385Y-69048570D01*
X167892386Y-69048572D01*
X167987678Y-69252927D01*
X167987681Y-69252933D01*
X167989965Y-69257830D01*
X167993064Y-69262257D01*
X167993066Y-69262259D01*
X168122399Y-69446966D01*
X168122402Y-69446970D01*
X168125505Y-69451401D01*
X168129336Y-69455231D01*
X168129336Y-69455232D01*
X168231923Y-69557819D01*
X168262173Y-69607182D01*
X168266715Y-69664898D01*
X168244560Y-69718385D01*
X168200537Y-69755985D01*
X168144242Y-69769500D01*
X168039326Y-69769500D01*
X168033351Y-69770688D01*
X168033346Y-69770689D01*
X167978240Y-69781650D01*
X167978235Y-69781651D01*
X167966260Y-69784034D01*
X167956105Y-69790819D01*
X167956103Y-69790820D01*
X167893551Y-69832615D01*
X167893548Y-69832617D01*
X167883399Y-69839399D01*
X167876617Y-69849548D01*
X167876615Y-69849551D01*
X167834820Y-69912103D01*
X167834819Y-69912105D01*
X167828034Y-69922260D01*
X167825651Y-69934235D01*
X167825650Y-69934240D01*
X167814689Y-69989346D01*
X167814688Y-69989351D01*
X167813500Y-69995326D01*
X167813500Y-70001421D01*
X167813500Y-70495500D01*
X167796887Y-70557500D01*
X167751500Y-70602887D01*
X167689500Y-70619500D01*
X163476217Y-70619500D01*
X163409592Y-70600080D01*
X163363835Y-70547904D01*
X163353278Y-70479314D01*
X163355070Y-70465709D01*
X163369250Y-70358000D01*
X163350330Y-70214291D01*
X163294861Y-70080375D01*
X163206621Y-69965379D01*
X163189029Y-69951880D01*
X163098071Y-69882085D01*
X163098069Y-69882084D01*
X163091625Y-69877139D01*
X163016653Y-69846085D01*
X162965223Y-69824782D01*
X162965220Y-69824781D01*
X162957709Y-69821670D01*
X162949649Y-69820608D01*
X162949646Y-69820608D01*
X162822059Y-69803811D01*
X162814000Y-69802750D01*
X162805941Y-69803811D01*
X162678353Y-69820608D01*
X162678348Y-69820609D01*
X162670291Y-69821670D01*
X162662781Y-69824780D01*
X162662776Y-69824782D01*
X162543885Y-69874028D01*
X162543883Y-69874029D01*
X162536375Y-69877139D01*
X162529933Y-69882082D01*
X162529928Y-69882085D01*
X162427821Y-69960435D01*
X162427817Y-69960438D01*
X162421379Y-69965379D01*
X162416438Y-69971817D01*
X162416430Y-69971826D01*
X162400184Y-69992998D01*
X162356652Y-70028722D01*
X162301809Y-70041508D01*
X162246966Y-70028720D01*
X162203435Y-69992994D01*
X162159567Y-69935824D01*
X162159564Y-69935821D01*
X162154621Y-69929379D01*
X162148178Y-69924435D01*
X162046071Y-69846085D01*
X162046069Y-69846084D01*
X162039625Y-69841139D01*
X161949506Y-69803811D01*
X161913223Y-69788782D01*
X161913220Y-69788781D01*
X161905709Y-69785670D01*
X161897649Y-69784608D01*
X161897646Y-69784608D01*
X161770059Y-69767811D01*
X161762000Y-69766750D01*
X161753941Y-69767811D01*
X161626353Y-69784608D01*
X161626348Y-69784609D01*
X161618291Y-69785670D01*
X161610781Y-69788780D01*
X161610776Y-69788782D01*
X161491885Y-69838028D01*
X161491883Y-69838029D01*
X161484375Y-69841139D01*
X161477933Y-69846082D01*
X161477928Y-69846085D01*
X161375821Y-69924435D01*
X161375817Y-69924438D01*
X161369379Y-69929379D01*
X161364438Y-69935817D01*
X161364435Y-69935821D01*
X161286085Y-70037928D01*
X161286082Y-70037933D01*
X161281139Y-70044375D01*
X161278029Y-70051883D01*
X161278028Y-70051885D01*
X161228782Y-70170776D01*
X161228780Y-70170781D01*
X161225670Y-70178291D01*
X161224609Y-70186348D01*
X161224608Y-70186353D01*
X161220930Y-70214291D01*
X161206750Y-70322000D01*
X122284445Y-70322000D01*
X122591771Y-70014674D01*
X122597682Y-70005395D01*
X122590251Y-69997286D01*
X122525405Y-69951880D01*
X122486539Y-69907562D01*
X122472529Y-69850305D01*
X122486540Y-69793048D01*
X122525406Y-69748730D01*
X122706961Y-69621604D01*
X122706961Y-69621603D01*
X122711401Y-69618495D01*
X122878495Y-69451401D01*
X123014035Y-69257830D01*
X123113903Y-69043663D01*
X123175063Y-68815408D01*
X123195659Y-68580000D01*
X123175063Y-68344592D01*
X123113903Y-68116337D01*
X123014035Y-67902171D01*
X122878495Y-67708599D01*
X122772076Y-67602180D01*
X122741827Y-67552818D01*
X122737285Y-67495102D01*
X122759440Y-67441615D01*
X122803463Y-67404015D01*
X122859758Y-67390500D01*
X122958579Y-67390500D01*
X122964674Y-67390500D01*
X123037740Y-67375966D01*
X123120601Y-67320601D01*
X123175966Y-67237740D01*
X123190500Y-67164674D01*
X123190500Y-66045395D01*
X167809315Y-66045395D01*
X167828958Y-66269922D01*
X167830833Y-66280553D01*
X167889168Y-66498263D01*
X167892856Y-66508397D01*
X167988110Y-66712668D01*
X167993508Y-66722018D01*
X168041284Y-66790249D01*
X168049395Y-66797682D01*
X168058674Y-66791771D01*
X168798904Y-66051542D01*
X168805567Y-66040000D01*
X169522431Y-66040000D01*
X169529095Y-66051542D01*
X170269321Y-66791768D01*
X170278603Y-66797681D01*
X170286715Y-66790248D01*
X170334492Y-66722016D01*
X170339888Y-66712671D01*
X170435143Y-66508397D01*
X170438831Y-66498263D01*
X170497166Y-66280553D01*
X170499041Y-66269922D01*
X170515313Y-66083935D01*
X170949669Y-66083935D01*
X170980135Y-66256711D01*
X171049623Y-66417804D01*
X171154390Y-66558530D01*
X171288786Y-66671302D01*
X171445567Y-66750040D01*
X171616279Y-66790500D01*
X171744111Y-66790500D01*
X171747709Y-66790500D01*
X171878255Y-66775241D01*
X172043117Y-66715237D01*
X172189696Y-66618830D01*
X172310092Y-66491218D01*
X172397812Y-66339281D01*
X172448130Y-66171210D01*
X172458331Y-65996065D01*
X172427865Y-65823289D01*
X172358377Y-65662196D01*
X172253610Y-65521470D01*
X172181747Y-65461170D01*
X172124745Y-65413339D01*
X172124744Y-65413338D01*
X172119214Y-65408698D01*
X172039641Y-65368735D01*
X171968883Y-65333199D01*
X171968880Y-65333198D01*
X171962433Y-65329960D01*
X171955407Y-65328294D01*
X171955405Y-65328294D01*
X171798749Y-65291165D01*
X171798743Y-65291164D01*
X171791721Y-65289500D01*
X171660291Y-65289500D01*
X171656725Y-65289916D01*
X171656721Y-65289917D01*
X171536915Y-65303920D01*
X171536907Y-65303921D01*
X171529745Y-65304759D01*
X171522967Y-65307225D01*
X171522958Y-65307228D01*
X171371674Y-65362291D01*
X171371671Y-65362292D01*
X171364883Y-65364763D01*
X171358850Y-65368730D01*
X171358842Y-65368735D01*
X171224340Y-65457199D01*
X171224334Y-65457203D01*
X171218304Y-65461170D01*
X171213351Y-65466419D01*
X171213346Y-65466424D01*
X171102865Y-65583527D01*
X171102861Y-65583531D01*
X171097908Y-65588782D01*
X171094299Y-65595032D01*
X171094296Y-65595037D01*
X171013799Y-65734463D01*
X171013796Y-65734468D01*
X171010188Y-65740719D01*
X171008117Y-65747634D01*
X171008117Y-65747636D01*
X170961941Y-65901869D01*
X170961939Y-65901877D01*
X170959870Y-65908790D01*
X170959450Y-65915996D01*
X170959449Y-65916004D01*
X170950088Y-66076725D01*
X170950088Y-66076733D01*
X170949669Y-66083935D01*
X170515313Y-66083935D01*
X170518685Y-66045395D01*
X170518685Y-66034605D01*
X170499041Y-65810077D01*
X170497166Y-65799446D01*
X170438831Y-65581736D01*
X170435143Y-65571602D01*
X170339889Y-65367332D01*
X170334491Y-65357982D01*
X170286714Y-65289749D01*
X170278603Y-65282316D01*
X170269324Y-65288227D01*
X169529095Y-66028457D01*
X169522431Y-66040000D01*
X168805567Y-66040000D01*
X168805568Y-66039999D01*
X168798904Y-66028457D01*
X168058674Y-65288227D01*
X168049396Y-65282316D01*
X168041283Y-65289750D01*
X167993505Y-65357986D01*
X167988111Y-65367330D01*
X167892856Y-65571602D01*
X167889168Y-65581736D01*
X167830833Y-65799446D01*
X167828958Y-65810077D01*
X167809315Y-66034605D01*
X167809315Y-66045395D01*
X123190500Y-66045395D01*
X123190500Y-64925396D01*
X168406316Y-64925396D01*
X168412227Y-64934674D01*
X169152457Y-65674904D01*
X169164000Y-65681568D01*
X169175542Y-65674904D01*
X169915771Y-64934674D01*
X169921682Y-64925395D01*
X169914249Y-64917284D01*
X169846018Y-64869508D01*
X169836668Y-64864110D01*
X169632397Y-64768856D01*
X169622263Y-64765168D01*
X169404553Y-64706833D01*
X169393922Y-64704958D01*
X169169395Y-64685315D01*
X169158605Y-64685315D01*
X168934077Y-64704958D01*
X168923446Y-64706833D01*
X168705736Y-64765168D01*
X168695602Y-64768856D01*
X168491330Y-64864111D01*
X168481986Y-64869505D01*
X168413750Y-64917283D01*
X168406316Y-64925396D01*
X123190500Y-64925396D01*
X123190500Y-64915326D01*
X123175966Y-64842260D01*
X123120601Y-64759399D01*
X123037740Y-64704034D01*
X123025762Y-64701651D01*
X123025759Y-64701650D01*
X122970653Y-64690689D01*
X122970649Y-64690688D01*
X122964674Y-64689500D01*
X120715326Y-64689500D01*
X120709351Y-64690688D01*
X120709346Y-64690689D01*
X120654240Y-64701650D01*
X120654235Y-64701651D01*
X120642260Y-64704034D01*
X120632105Y-64710819D01*
X120632103Y-64710820D01*
X120569551Y-64752615D01*
X120569548Y-64752617D01*
X120559399Y-64759399D01*
X120552617Y-64769548D01*
X120552615Y-64769551D01*
X120510820Y-64832103D01*
X120510819Y-64832105D01*
X120504034Y-64842260D01*
X120501651Y-64854235D01*
X120501650Y-64854240D01*
X120490689Y-64909346D01*
X120490688Y-64909351D01*
X120489500Y-64915326D01*
X120489500Y-67164674D01*
X120490688Y-67170649D01*
X120490689Y-67170653D01*
X120501650Y-67225759D01*
X120501651Y-67225762D01*
X120504034Y-67237740D01*
X120559399Y-67320601D01*
X120642260Y-67375966D01*
X120715326Y-67390500D01*
X120820242Y-67390500D01*
X120876537Y-67404015D01*
X120920560Y-67441615D01*
X120942715Y-67495102D01*
X120938173Y-67552818D01*
X120907923Y-67602181D01*
X120805334Y-67704769D01*
X120805328Y-67704775D01*
X120801505Y-67708599D01*
X120798402Y-67713029D01*
X120798399Y-67713034D01*
X120669073Y-67897731D01*
X120669068Y-67897738D01*
X120665965Y-67902171D01*
X120663677Y-67907077D01*
X120663675Y-67907081D01*
X120568386Y-68111427D01*
X120568383Y-68111432D01*
X120566097Y-68116337D01*
X120564698Y-68121557D01*
X120564694Y-68121569D01*
X120506337Y-68339365D01*
X120506335Y-68339371D01*
X120504937Y-68344592D01*
X120504465Y-68349977D01*
X120504465Y-68349982D01*
X120495189Y-68456004D01*
X120484341Y-68580000D01*
X120051772Y-68580000D01*
X120054331Y-68536065D01*
X120023865Y-68363289D01*
X119954377Y-68202196D01*
X119849610Y-68061470D01*
X119777747Y-68001170D01*
X119720745Y-67953339D01*
X119720744Y-67953338D01*
X119715214Y-67948698D01*
X119635641Y-67908735D01*
X119564883Y-67873199D01*
X119564880Y-67873198D01*
X119558433Y-67869960D01*
X119551407Y-67868294D01*
X119551405Y-67868294D01*
X119394749Y-67831165D01*
X119394743Y-67831164D01*
X119387721Y-67829500D01*
X119256291Y-67829500D01*
X119252725Y-67829916D01*
X119252721Y-67829917D01*
X119132915Y-67843920D01*
X119132907Y-67843921D01*
X119125745Y-67844759D01*
X119118967Y-67847225D01*
X119118958Y-67847228D01*
X118967674Y-67902291D01*
X118967671Y-67902292D01*
X118960883Y-67904763D01*
X118954850Y-67908730D01*
X118954842Y-67908735D01*
X118820340Y-67997199D01*
X118820334Y-67997203D01*
X118814304Y-68001170D01*
X118809351Y-68006419D01*
X118809346Y-68006424D01*
X118698865Y-68123527D01*
X118698861Y-68123531D01*
X118693908Y-68128782D01*
X118690299Y-68135032D01*
X118690296Y-68135037D01*
X118609799Y-68274463D01*
X118609796Y-68274468D01*
X118606188Y-68280719D01*
X118604117Y-68287634D01*
X118604117Y-68287636D01*
X118557941Y-68441869D01*
X118557939Y-68441877D01*
X118555870Y-68448790D01*
X118555450Y-68455996D01*
X118555449Y-68456004D01*
X118546088Y-68616725D01*
X118546088Y-68616733D01*
X118545669Y-68623935D01*
X117140500Y-68623935D01*
X117140500Y-66083935D01*
X118545669Y-66083935D01*
X118576135Y-66256711D01*
X118645623Y-66417804D01*
X118750390Y-66558530D01*
X118884786Y-66671302D01*
X119041567Y-66750040D01*
X119212279Y-66790500D01*
X119340111Y-66790500D01*
X119343709Y-66790500D01*
X119474255Y-66775241D01*
X119639117Y-66715237D01*
X119785696Y-66618830D01*
X119906092Y-66491218D01*
X119993812Y-66339281D01*
X120044130Y-66171210D01*
X120054331Y-65996065D01*
X120023865Y-65823289D01*
X119954377Y-65662196D01*
X119849610Y-65521470D01*
X119777747Y-65461170D01*
X119720745Y-65413339D01*
X119720744Y-65413338D01*
X119715214Y-65408698D01*
X119635641Y-65368735D01*
X119564883Y-65333199D01*
X119564880Y-65333198D01*
X119558433Y-65329960D01*
X119551407Y-65328294D01*
X119551405Y-65328294D01*
X119394749Y-65291165D01*
X119394743Y-65291164D01*
X119387721Y-65289500D01*
X119256291Y-65289500D01*
X119252725Y-65289916D01*
X119252721Y-65289917D01*
X119132915Y-65303920D01*
X119132907Y-65303921D01*
X119125745Y-65304759D01*
X119118967Y-65307225D01*
X119118958Y-65307228D01*
X118967674Y-65362291D01*
X118967671Y-65362292D01*
X118960883Y-65364763D01*
X118954850Y-65368730D01*
X118954842Y-65368735D01*
X118820340Y-65457199D01*
X118820334Y-65457203D01*
X118814304Y-65461170D01*
X118809351Y-65466419D01*
X118809346Y-65466424D01*
X118698865Y-65583527D01*
X118698861Y-65583531D01*
X118693908Y-65588782D01*
X118690299Y-65595032D01*
X118690296Y-65595037D01*
X118609799Y-65734463D01*
X118609796Y-65734468D01*
X118606188Y-65740719D01*
X118604117Y-65747634D01*
X118604117Y-65747636D01*
X118557941Y-65901869D01*
X118557939Y-65901877D01*
X118555870Y-65908790D01*
X118555450Y-65915996D01*
X118555449Y-65916004D01*
X118546088Y-66076725D01*
X118546088Y-66076733D01*
X118545669Y-66083935D01*
X117140500Y-66083935D01*
X117140500Y-63825072D01*
X126984000Y-63825072D01*
X126984108Y-63828722D01*
X126986590Y-63870381D01*
X126987894Y-63879852D01*
X127031288Y-64079328D01*
X127034872Y-64090540D01*
X127114793Y-64277173D01*
X127120430Y-64287498D01*
X127234234Y-64455644D01*
X127241721Y-64464711D01*
X127385288Y-64608278D01*
X127394355Y-64615765D01*
X127562501Y-64729569D01*
X127572826Y-64735206D01*
X127759459Y-64815127D01*
X127770671Y-64818711D01*
X127970147Y-64862105D01*
X127979618Y-64863409D01*
X128021277Y-64865891D01*
X128024928Y-64866000D01*
X128717674Y-64866000D01*
X128730549Y-64862549D01*
X128734000Y-64849674D01*
X129234000Y-64849674D01*
X129237450Y-64862549D01*
X129250326Y-64866000D01*
X129943072Y-64866000D01*
X129946722Y-64865891D01*
X129988381Y-64863409D01*
X129997852Y-64862105D01*
X130197328Y-64818711D01*
X130208540Y-64815127D01*
X130395173Y-64735206D01*
X130405498Y-64729569D01*
X130573644Y-64615765D01*
X130582711Y-64608278D01*
X130726278Y-64464711D01*
X130733765Y-64455644D01*
X130847569Y-64287498D01*
X130853206Y-64277173D01*
X130933127Y-64090540D01*
X130936711Y-64079328D01*
X130980105Y-63879852D01*
X130981409Y-63870381D01*
X130983891Y-63828722D01*
X130984000Y-63825072D01*
X130984000Y-63132326D01*
X130980549Y-63119450D01*
X130967674Y-63116000D01*
X129250326Y-63116000D01*
X129237450Y-63119450D01*
X129234000Y-63132326D01*
X129234000Y-64849674D01*
X128734000Y-64849674D01*
X128734000Y-63132326D01*
X128730549Y-63119450D01*
X128717674Y-63116000D01*
X127000326Y-63116000D01*
X126987450Y-63119450D01*
X126984000Y-63132326D01*
X126984000Y-63825072D01*
X117140500Y-63825072D01*
X117140500Y-62599674D01*
X126984000Y-62599674D01*
X126987450Y-62612549D01*
X127000326Y-62616000D01*
X128717674Y-62616000D01*
X128730549Y-62612549D01*
X128734000Y-62599674D01*
X129234000Y-62599674D01*
X129237450Y-62612549D01*
X129250326Y-62616000D01*
X130967674Y-62616000D01*
X130980549Y-62612549D01*
X130984000Y-62599674D01*
X130984000Y-61906928D01*
X130983891Y-61903277D01*
X130981409Y-61861618D01*
X130980105Y-61852147D01*
X130936711Y-61652671D01*
X130933127Y-61641459D01*
X130853206Y-61454826D01*
X130847569Y-61444501D01*
X130733765Y-61276355D01*
X130726278Y-61267288D01*
X130582711Y-61123721D01*
X130573644Y-61116234D01*
X130405498Y-61002430D01*
X130395173Y-60996793D01*
X130208540Y-60916872D01*
X130197328Y-60913288D01*
X129997852Y-60869894D01*
X129988381Y-60868590D01*
X129946722Y-60866108D01*
X129943072Y-60866000D01*
X129250326Y-60866000D01*
X129237450Y-60869450D01*
X129234000Y-60882326D01*
X129234000Y-62599674D01*
X128734000Y-62599674D01*
X128734000Y-60882326D01*
X128730549Y-60869450D01*
X128717674Y-60866000D01*
X128024928Y-60866000D01*
X128021277Y-60866108D01*
X127979618Y-60868590D01*
X127970147Y-60869894D01*
X127770671Y-60913288D01*
X127759459Y-60916872D01*
X127572826Y-60996793D01*
X127562501Y-61002430D01*
X127394355Y-61116234D01*
X127385288Y-61123721D01*
X127241721Y-61267288D01*
X127234234Y-61276355D01*
X127120430Y-61444501D01*
X127114793Y-61454826D01*
X127034872Y-61641459D01*
X127031288Y-61652671D01*
X126987894Y-61852147D01*
X126986590Y-61861618D01*
X126984108Y-61903277D01*
X126984000Y-61906928D01*
X126984000Y-62599674D01*
X117140500Y-62599674D01*
X117140500Y-59221261D01*
X124234000Y-59221261D01*
X124234242Y-59226734D01*
X124244087Y-59337462D01*
X124246229Y-59348992D01*
X124298827Y-59532815D01*
X124303471Y-59544439D01*
X124391809Y-59713555D01*
X124398696Y-59724005D01*
X124519276Y-59871883D01*
X124528116Y-59880723D01*
X124675994Y-60001303D01*
X124686444Y-60008190D01*
X124855560Y-60096528D01*
X124867184Y-60101172D01*
X125051007Y-60153770D01*
X125062537Y-60155912D01*
X125173265Y-60165757D01*
X125178739Y-60166000D01*
X125717674Y-60166000D01*
X125730549Y-60162549D01*
X125734000Y-60149674D01*
X126234000Y-60149674D01*
X126237450Y-60162549D01*
X126250326Y-60166000D01*
X126789261Y-60166000D01*
X126794734Y-60165757D01*
X126905462Y-60155912D01*
X126916992Y-60153770D01*
X127100815Y-60101172D01*
X127112439Y-60096528D01*
X127281555Y-60008190D01*
X127292005Y-60001303D01*
X127366360Y-59940674D01*
X129983500Y-59940674D01*
X129984688Y-59946649D01*
X129984689Y-59946653D01*
X129995650Y-60001759D01*
X129995651Y-60001762D01*
X129998034Y-60013740D01*
X130053399Y-60096601D01*
X130136260Y-60151966D01*
X130209326Y-60166500D01*
X133752579Y-60166500D01*
X133758674Y-60166500D01*
X133831740Y-60151966D01*
X133914601Y-60096601D01*
X133969966Y-60013740D01*
X133984500Y-59940674D01*
X133984500Y-56391326D01*
X133969966Y-56318260D01*
X133914601Y-56235399D01*
X133831740Y-56180034D01*
X133819762Y-56177651D01*
X133819759Y-56177650D01*
X133764653Y-56166689D01*
X133764649Y-56166688D01*
X133758674Y-56165500D01*
X130209326Y-56165500D01*
X130203351Y-56166688D01*
X130203346Y-56166689D01*
X130148240Y-56177650D01*
X130148235Y-56177651D01*
X130136260Y-56180034D01*
X130126105Y-56186819D01*
X130126103Y-56186820D01*
X130063551Y-56228615D01*
X130063548Y-56228617D01*
X130053399Y-56235399D01*
X130046617Y-56245548D01*
X130046615Y-56245551D01*
X130004820Y-56308103D01*
X130004819Y-56308105D01*
X129998034Y-56318260D01*
X129995651Y-56330235D01*
X129995650Y-56330240D01*
X129984689Y-56385346D01*
X129984688Y-56385351D01*
X129983500Y-56391326D01*
X129983500Y-59940674D01*
X127366360Y-59940674D01*
X127439883Y-59880723D01*
X127448723Y-59871883D01*
X127569303Y-59724005D01*
X127576190Y-59713555D01*
X127664528Y-59544439D01*
X127669172Y-59532815D01*
X127721770Y-59348992D01*
X127723912Y-59337462D01*
X127733757Y-59226734D01*
X127734000Y-59221261D01*
X127734000Y-58432326D01*
X127730549Y-58419450D01*
X127717674Y-58416000D01*
X126250326Y-58416000D01*
X126237450Y-58419450D01*
X126234000Y-58432326D01*
X126234000Y-60149674D01*
X125734000Y-60149674D01*
X125734000Y-58432326D01*
X125730549Y-58419450D01*
X125717674Y-58416000D01*
X124250326Y-58416000D01*
X124237450Y-58419450D01*
X124234000Y-58432326D01*
X124234000Y-59221261D01*
X117140500Y-59221261D01*
X117140500Y-57899674D01*
X124234000Y-57899674D01*
X124237450Y-57912549D01*
X124250326Y-57916000D01*
X125717674Y-57916000D01*
X125730549Y-57912549D01*
X125734000Y-57899674D01*
X126234000Y-57899674D01*
X126237450Y-57912549D01*
X126250326Y-57916000D01*
X127717674Y-57916000D01*
X127730549Y-57912549D01*
X127734000Y-57899674D01*
X127734000Y-57110739D01*
X127733757Y-57105265D01*
X127723912Y-56994537D01*
X127721770Y-56983007D01*
X127669172Y-56799184D01*
X127664528Y-56787560D01*
X127576190Y-56618444D01*
X127569303Y-56607994D01*
X127448723Y-56460116D01*
X127439883Y-56451276D01*
X127292005Y-56330696D01*
X127281555Y-56323809D01*
X127112439Y-56235471D01*
X127100815Y-56230827D01*
X126916992Y-56178229D01*
X126905462Y-56176087D01*
X126794734Y-56166242D01*
X126789261Y-56166000D01*
X126250326Y-56166000D01*
X126237450Y-56169450D01*
X126234000Y-56182326D01*
X126234000Y-57899674D01*
X125734000Y-57899674D01*
X125734000Y-56182326D01*
X125730549Y-56169450D01*
X125717674Y-56166000D01*
X125178739Y-56166000D01*
X125173265Y-56166242D01*
X125062537Y-56176087D01*
X125051007Y-56178229D01*
X124867184Y-56230827D01*
X124855560Y-56235471D01*
X124686444Y-56323809D01*
X124675994Y-56330696D01*
X124528116Y-56451276D01*
X124519276Y-56460116D01*
X124398696Y-56607994D01*
X124391809Y-56618444D01*
X124303471Y-56787560D01*
X124298827Y-56799184D01*
X124246229Y-56983007D01*
X124244087Y-56994537D01*
X124234242Y-57105265D01*
X124234000Y-57110739D01*
X124234000Y-57899674D01*
X117140500Y-57899674D01*
X117140500Y-54613751D01*
X117140726Y-54606264D01*
X117156375Y-54347544D01*
X117158180Y-54332679D01*
X117204225Y-54081424D01*
X117207803Y-54066906D01*
X117283805Y-53823004D01*
X117289102Y-53809038D01*
X117393949Y-53576077D01*
X117400894Y-53562845D01*
X117533056Y-53344223D01*
X117541543Y-53331927D01*
X117699093Y-53130829D01*
X117709008Y-53119638D01*
X117889638Y-52939008D01*
X117900829Y-52929093D01*
X118101927Y-52771543D01*
X118114223Y-52763056D01*
X118332845Y-52630894D01*
X118346077Y-52623949D01*
X118579038Y-52519102D01*
X118593004Y-52513805D01*
X118836906Y-52437803D01*
X118851420Y-52434225D01*
X119102683Y-52388179D01*
X119117540Y-52386375D01*
X119376263Y-52370726D01*
X119383751Y-52370500D01*
X119427595Y-52370500D01*
X171402405Y-52370500D01*
X171446249Y-52370500D01*
X171453736Y-52370726D01*
G37*
%TD.AperFunction*%
%TD*%
M02*
