%TF.GenerationSoftware,KiCad,Pcbnew,(7.0.0)*%
%TF.CreationDate,2023-07-11T13:45:39+03:00*%
%TF.ProjectId,Pico_Baseboard,5069636f-5f42-4617-9365-626f6172642e,rev?*%
%TF.SameCoordinates,Original*%
%TF.FileFunction,Paste,Top*%
%TF.FilePolarity,Positive*%
%FSLAX46Y46*%
G04 Gerber Fmt 4.6, Leading zero omitted, Abs format (unit mm)*
G04 Created by KiCad (PCBNEW (7.0.0)) date 2023-07-11 13:45:39*
%MOMM*%
%LPD*%
G01*
G04 APERTURE LIST*
G04 Aperture macros list*
%AMRoundRect*
0 Rectangle with rounded corners*
0 $1 Rounding radius*
0 $2 $3 $4 $5 $6 $7 $8 $9 X,Y pos of 4 corners*
0 Add a 4 corners polygon primitive as box body*
4,1,4,$2,$3,$4,$5,$6,$7,$8,$9,$2,$3,0*
0 Add four circle primitives for the rounded corners*
1,1,$1+$1,$2,$3*
1,1,$1+$1,$4,$5*
1,1,$1+$1,$6,$7*
1,1,$1+$1,$8,$9*
0 Add four rect primitives between the rounded corners*
20,1,$1+$1,$2,$3,$4,$5,0*
20,1,$1+$1,$4,$5,$6,$7,0*
20,1,$1+$1,$6,$7,$8,$9,0*
20,1,$1+$1,$8,$9,$2,$3,0*%
%AMFreePoly0*
4,1,18,-1.600000,0.800000,0.800000,0.800000,0.978017,0.779942,1.147107,0.720775,1.298792,0.625465,1.425465,0.498792,1.520775,0.347107,1.579942,0.178017,1.600000,0.000000,1.579942,-0.178017,1.520775,-0.347107,1.425465,-0.498792,1.298792,-0.625465,1.147107,-0.720775,0.978017,-0.779942,0.800000,-0.800000,-1.600000,-0.800000,-1.600000,0.800000,-1.600000,0.800000,$1*%
G04 Aperture macros list end*
%ADD10RoundRect,0.140000X0.170000X-0.140000X0.170000X0.140000X-0.170000X0.140000X-0.170000X-0.140000X0*%
%ADD11RoundRect,0.150000X0.150000X-0.512500X0.150000X0.512500X-0.150000X0.512500X-0.150000X-0.512500X0*%
%ADD12RoundRect,0.135000X-0.135000X-0.185000X0.135000X-0.185000X0.135000X0.185000X-0.135000X0.185000X0*%
%ADD13RoundRect,0.112500X0.187500X0.112500X-0.187500X0.112500X-0.187500X-0.112500X0.187500X-0.112500X0*%
%ADD14R,0.250000X1.100000*%
%ADD15RoundRect,0.140000X-0.140000X-0.170000X0.140000X-0.170000X0.140000X0.170000X-0.140000X0.170000X0*%
%ADD16R,2.500000X1.500000*%
%ADD17RoundRect,0.140000X-0.170000X0.140000X-0.170000X-0.140000X0.170000X-0.140000X0.170000X0.140000X0*%
%ADD18RoundRect,0.147500X0.147500X0.172500X-0.147500X0.172500X-0.147500X-0.172500X0.147500X-0.172500X0*%
%ADD19RoundRect,0.135000X0.185000X-0.135000X0.185000X0.135000X-0.185000X0.135000X-0.185000X-0.135000X0*%
%ADD20R,1.700000X0.900000*%
%ADD21RoundRect,0.135000X-0.185000X0.135000X-0.185000X-0.135000X0.185000X-0.135000X0.185000X0.135000X0*%
%ADD22FreePoly0,0.000000*%
%ADD23RoundRect,0.200000X-1.400000X-0.600000X1.400000X-0.600000X1.400000X0.600000X-1.400000X0.600000X0*%
%ADD24FreePoly0,180.000000*%
%ADD25RoundRect,0.200000X1.400000X0.600000X-1.400000X0.600000X-1.400000X-0.600000X1.400000X-0.600000X0*%
%ADD26RoundRect,0.550000X0.000000X0.350000X0.000000X0.350000X0.000000X-0.350000X0.000000X-0.350000X0*%
%ADD27RoundRect,0.525000X0.000000X0.200000X0.000000X0.200000X0.000000X-0.200000X0.000000X-0.200000X0*%
%ADD28FreePoly0,90.000000*%
%ADD29RoundRect,0.200000X0.600000X-1.400000X0.600000X1.400000X-0.600000X1.400000X-0.600000X-1.400000X0*%
%ADD30RoundRect,0.300000X0.450000X0.450000X-0.450000X0.450000X-0.450000X-0.450000X0.450000X-0.450000X0*%
G04 APERTURE END LIST*
D10*
%TO.C,C303*%
X162814000Y-69596000D03*
X162814000Y-68636000D03*
%TD*%
D11*
%TO.C,U201*%
X168084000Y-59910500D03*
X169034000Y-59910500D03*
X169984000Y-59910500D03*
X169984000Y-57635500D03*
X169034000Y-57635500D03*
X168084000Y-57635500D03*
%TD*%
D12*
%TO.C,R302*%
X129538000Y-90796000D03*
X130558000Y-90796000D03*
%TD*%
D10*
%TO.C,C204*%
X166748000Y-60015000D03*
X166748000Y-59055000D03*
%TD*%
D13*
%TO.C,D101*%
X136051000Y-54356000D03*
X133951000Y-54356000D03*
%TD*%
D14*
%TO.C,U302*%
X130539999Y-85089999D03*
X130039999Y-85089999D03*
X129539999Y-85089999D03*
X129039999Y-85089999D03*
X128539999Y-85089999D03*
X128539999Y-89389999D03*
X129039999Y-89389999D03*
X129539999Y-89389999D03*
X130039999Y-89389999D03*
X130539999Y-89389999D03*
%TD*%
D10*
%TO.C,C301*%
X161762000Y-69596000D03*
X161762000Y-68636000D03*
%TD*%
D15*
%TO.C,C302*%
X168049000Y-62357000D03*
X169009000Y-62357000D03*
%TD*%
%TO.C,C205*%
X168049000Y-61341000D03*
X169009000Y-61341000D03*
%TD*%
D16*
%TO.C,L201*%
X163826999Y-56850999D03*
X163826999Y-60550999D03*
%TD*%
D10*
%TO.C,C305*%
X132080000Y-109545000D03*
X132080000Y-108585000D03*
%TD*%
D17*
%TO.C,C203*%
X166748000Y-56670000D03*
X166748000Y-57630000D03*
%TD*%
D15*
%TO.C,C304*%
X168049000Y-63373000D03*
X169009000Y-63373000D03*
%TD*%
D10*
%TO.C,C202*%
X171254000Y-59133000D03*
X171254000Y-58173000D03*
%TD*%
%TO.C,C306*%
X131064000Y-109545000D03*
X131064000Y-108585000D03*
%TD*%
%TO.C,C307*%
X134874000Y-100528000D03*
X134874000Y-99568000D03*
%TD*%
D18*
%TO.C,FB301*%
X132057000Y-110490000D03*
X131087000Y-110490000D03*
%TD*%
D19*
%TO.C,R303*%
X134874000Y-102750000D03*
X134874000Y-101730000D03*
%TD*%
D20*
%TO.C,SW301*%
X132587999Y-102791999D03*
X132587999Y-99391999D03*
%TD*%
D10*
%TO.C,C201*%
X172270000Y-59133000D03*
X172270000Y-58173000D03*
%TD*%
D21*
%TO.C,R301*%
X131826000Y-89016000D03*
X131826000Y-90036000D03*
%TD*%
D22*
%TO.C,U301*%
X138871999Y-59445999D03*
X138871999Y-61985999D03*
D23*
X138872000Y-64526000D03*
D22*
X138871999Y-67065999D03*
X138871999Y-69605999D03*
X138871999Y-72145999D03*
X138871999Y-74685999D03*
D23*
X138872000Y-77226000D03*
D22*
X138871999Y-79765999D03*
X138871999Y-82305999D03*
X138871999Y-84845999D03*
X138871999Y-87385999D03*
D23*
X138872000Y-89926000D03*
D22*
X138871999Y-92465999D03*
X138871999Y-95005999D03*
X138871999Y-97545999D03*
X138871999Y-100085999D03*
D23*
X138872000Y-102626000D03*
D22*
X138871999Y-105165999D03*
X138871999Y-107705999D03*
D24*
X158241999Y-107695999D03*
X158241999Y-105155999D03*
D25*
X158242000Y-102616000D03*
D24*
X158241999Y-100075999D03*
X158241999Y-97535999D03*
X158241999Y-94995999D03*
X158241999Y-92455999D03*
D25*
X158242000Y-89916000D03*
D24*
X158241999Y-87375999D03*
X158241999Y-84835999D03*
X158241999Y-82295999D03*
X158241999Y-79755999D03*
D25*
X158242000Y-77216000D03*
D24*
X158241999Y-74675999D03*
X158241999Y-72135999D03*
X158241999Y-69595999D03*
X158241999Y-67055999D03*
D25*
X158242000Y-64516000D03*
D24*
X158241999Y-61975999D03*
X158241999Y-59435999D03*
D26*
X145837000Y-59806000D03*
X151287000Y-59806000D03*
D27*
X146137000Y-62836000D03*
X150987000Y-62836000D03*
D28*
X146031999Y-108507999D03*
D29*
X148572000Y-108508000D03*
D28*
X151111999Y-108507999D03*
D30*
X148562000Y-62806000D03*
X149562000Y-59506000D03*
X147562000Y-59506000D03*
X146062000Y-66306000D03*
X146062000Y-68806000D03*
X146062000Y-71306000D03*
%TD*%
M02*
