M48
; DRILL file {KiCad (7.0.0)} date Tue Jul 11 13:45:42 2023
; FORMAT={-:-/ absolute / inch / decimal}
; #@! TF.CreationDate,2023-07-11T13:45:42+03:00
; #@! TF.GenerationSoftware,Kicad,Pcbnew,(7.0.0)
; #@! TF.FileFunction,NonPlated,1,2,NPTH
FMAT,2
INCH
; #@! TA.AperFunction,NonPlated,NPTH,ComponentDrill
T1C0.0433
%
G90
G05
T1
X4.6969Y-2.6
X4.6969Y-2.7
X4.6969Y-2.8
X4.6969Y-3.05
X4.6969Y-3.15
X4.6969Y-3.25
X4.7Y-3.5484
X4.7Y-3.6484
X4.7Y-3.7484
X4.7Y-4.05
X4.7Y-4.15
X4.7Y-4.25
X6.76Y-2.6
X6.76Y-2.7
X6.76Y-2.8
X6.76Y-3.05
X6.76Y-3.15
X6.76Y-3.25
X6.76Y-3.5484
X6.76Y-3.6484
X6.76Y-3.7484
X6.76Y-4.05
X6.76Y-4.15
X6.76Y-4.25
T0
M30
