%TF.GenerationSoftware,KiCad,Pcbnew,(7.0.0)*%
%TF.CreationDate,2023-07-11T13:45:39+03:00*%
%TF.ProjectId,Pico_Baseboard,5069636f-5f42-4617-9365-626f6172642e,rev?*%
%TF.SameCoordinates,Original*%
%TF.FileFunction,Soldermask,Bot*%
%TF.FilePolarity,Negative*%
%FSLAX46Y46*%
G04 Gerber Fmt 4.6, Leading zero omitted, Abs format (unit mm)*
G04 Created by KiCad (PCBNEW (7.0.0)) date 2023-07-11 13:45:39*
%MOMM*%
%LPD*%
G01*
G04 APERTURE LIST*
G04 Aperture macros list*
%AMRoundRect*
0 Rectangle with rounded corners*
0 $1 Rounding radius*
0 $2 $3 $4 $5 $6 $7 $8 $9 X,Y pos of 4 corners*
0 Add a 4 corners polygon primitive as box body*
4,1,4,$2,$3,$4,$5,$6,$7,$8,$9,$2,$3,0*
0 Add four circle primitives for the rounded corners*
1,1,$1+$1,$2,$3*
1,1,$1+$1,$4,$5*
1,1,$1+$1,$6,$7*
1,1,$1+$1,$8,$9*
0 Add four rect primitives between the rounded corners*
20,1,$1+$1,$2,$3,$4,$5,0*
20,1,$1+$1,$4,$5,$6,$7,0*
20,1,$1+$1,$6,$7,$8,$9,0*
20,1,$1+$1,$8,$9,$2,$3,0*%
G04 Aperture macros list end*
%ADD10R,3.500000X3.500000*%
%ADD11RoundRect,0.750000X-0.750000X-1.000000X0.750000X-1.000000X0.750000X1.000000X-0.750000X1.000000X0*%
%ADD12RoundRect,0.875000X-0.875000X-0.875000X0.875000X-0.875000X0.875000X0.875000X-0.875000X0.875000X0*%
%ADD13C,1.100000*%
%ADD14R,2.200000X2.200000*%
%ADD15C,2.200000*%
G04 APERTURE END LIST*
D10*
%TO.C,J101*%
X131983999Y-58165999D03*
D11*
X125984000Y-58166000D03*
D12*
X128984000Y-62866000D03*
%TD*%
D13*
%TO.C,J107*%
X171704000Y-95210000D03*
X171704000Y-92670000D03*
X171704000Y-90130000D03*
D14*
X169163999Y-95209999D03*
D15*
X169164000Y-92670000D03*
X169164000Y-90130000D03*
%TD*%
D13*
%TO.C,J105*%
X119380000Y-102870000D03*
X119380000Y-105410000D03*
X119380000Y-107950000D03*
D14*
X121919999Y-102869999D03*
D15*
X121920000Y-105410000D03*
X121920000Y-107950000D03*
%TD*%
D13*
%TO.C,J109*%
X171704000Y-71120000D03*
X171704000Y-68580000D03*
X171704000Y-66040000D03*
D14*
X169163999Y-71119999D03*
D15*
X169164000Y-68580000D03*
X169164000Y-66040000D03*
%TD*%
D13*
%TO.C,J108*%
X171704000Y-82550000D03*
X171704000Y-80010000D03*
X171704000Y-77470000D03*
D14*
X169163999Y-82549999D03*
D15*
X169164000Y-80010000D03*
X169164000Y-77470000D03*
%TD*%
D13*
%TO.C,J104*%
X119380000Y-90130000D03*
X119380000Y-92670000D03*
X119380000Y-95210000D03*
D14*
X121919999Y-90129999D03*
D15*
X121920000Y-92670000D03*
X121920000Y-95210000D03*
%TD*%
D13*
%TO.C,J102*%
X119300000Y-66040000D03*
X119300000Y-68580000D03*
X119300000Y-71120000D03*
D14*
X121839999Y-66039999D03*
D15*
X121840000Y-68580000D03*
X121840000Y-71120000D03*
%TD*%
D13*
%TO.C,J106*%
X171704000Y-107950000D03*
X171704000Y-105410000D03*
X171704000Y-102870000D03*
D14*
X169163999Y-107949999D03*
D15*
X169164000Y-105410000D03*
X169164000Y-102870000D03*
%TD*%
D13*
%TO.C,J103*%
X119300000Y-77470000D03*
X119300000Y-80010000D03*
X119300000Y-82550000D03*
D14*
X121839999Y-77469999D03*
D15*
X121840000Y-80010000D03*
X121840000Y-82550000D03*
%TD*%
M02*
